<svg xmlns="http://www.w3.org/2000/svg" viewBox="0 0 2048 2048" width="128" height="128"><path transform="translate(1058,394)" d="m0 0h32l15 2 16 4 21 8 13 7 16 11 11 10 2 1v2l4 2 7 8 11 14 11 19 7 16 6 23 2 17v23l-2 23-4 19-6 15-2 3 10-6 16-12 22-18 40-30 13-11 13-10 12-10 9-7 13-10 18-14 11-9 13-10 15-12 13-10 18-13 15-11 10-6 11-4 5-1h19l11 3 14 6 9 7 7 7 11 14 11 16 13 20 9 17 6 15 2 7v15l-5 16-7 12-7 8-8 7-14 12-12 9-11 9-56 42-12 10-14 10-11 8-13 10-17 13-14 11-19 14-13 10-28 22-19 14-11 8-17 13-8 7 1 17 5 44 7 51 4 34 3 11 5 4 20 9 21 10 22 12 27 14 19 10 22 12 10 8 7 9 8 16 12 36 9 31 11 39 9 30 10 36 3 16 7-3 9-6 12-11 13-12 3-3h2l2-4h2v-2l8-7 21-21 1-2h2l2-4 19-19 11-13 7-7 8-10 8-9 8-10 13-14 11-14 6-8 1-4-76-19-14-7-8-9-5-11v-11l3-10 10-10 15-10 34-18 42-24 24-14 58-32 24-13 23-13 25-14 28-15 19-9 14-4 10-1 9 3 5 5 7 14 5 17 10 45 9 40 15 69 11 49 14 63 1 6v19l-4 8-7 7-10 5-3 1h-12l-18-4-52-17-7-1-7 6-9 16-8 10-10 15-20 28-9 13-12 17-10 13-22 28-9 12-10 13-26 32-11 13-9 11-12 14-8 10-10 11-1 2h-2l-2 4-12 13-7 8-9 10-7 7-1 2h-2v2h-2v2l-4 4h-2v2h-2l-2 4-70 70-8 7-9 9-8 7-10 9-8 7-3 3h-2v2l-11 9-7 7-8 6-17 14-14 11-16 13-28 22-17 12-28 20-16 11-34 22-16 10-23 14-14 8-17 10-18 10-19 10-16 9-46 22-18 8-21 9-29 12-51 19-35 12-57 16-28 7-45 10-40 7-61 9-52 5h-19l-1-1-2-47v-14l5-2 46-4 45-6 44-7 35-7 43-10 34-9 42-13 24-8 33-12 35-14 32-14 24-11 19-9 16-8 31-16 14-8 18-10 13-8 20-12 22-14 14-9 16-11 20-14 36-26 19-14 16-13 11-9 16-13 13-11 11-9 10-9 11-9 7-7 8-7 11-10h2v-2l8-7 15-14 9-9h2l2-4 12-12h2l2-4 34-34 7-8 8-8 7-8 7-7 5-7h2l2-4 5-5 11-13 8-10h2l2-4 9-10 9-11 2-3h2l2-4 13-16 3-4h2l2-4 10-13 4-5 30-39 18-24 8-11 13-18 9-13 11-16 14-20 11-16 9-13 8-11 9-11 7-5h11l17 3 20 6 6 2h6v-9l-11-52-12-56-8-39-4-28v-3l-14 7-23 13-16 9-19 11-46 25-19 11-11 6-18 10-9 6-2 2 12 4 20 4 12 4 11 6 11 10 3 6 1 8-3 11-7 12-12 17-8 11-13 17-9 11-8 10-11 13-11 14-9 10-9 11-12 13-16 16-1 2h-2l-2 4-16 16-1 2h-2l-2 4h-2l-2 4-18 18-5 4-14 14-8 7-17 16-10 9-8 7-14 13-17 13-11 9-8 6-15 12-14 11-15 12-19 13-12 9-23 16-33 21-26 16-22 13-16 9-25 14-35 18-30 15-20 9-27 12-19 8-15 6-36 14-47 16-48 15-61 16-40 9-43 9-50 9h-10l-3-7-5-40-1-9 2-7 4-2 49-7 23-4 4-2 3-10 7-41 7-45 10-72 7-45 9-64 7-44 9-66 6-36 9-70 2-23v-15l-3-51-5-61v-7l-8 5-4 5-6 9-10 14-8 10-10 13-9 12-10 13-10 14-21 27-10 14-14 19-10 13-13 16-7 9-10 11h-2v2l-10 7-11 5-11 3-30 3-32 2h-31l-13-2-11-4-9-6-5-4-11-14-6-14-4-16 1-11 5-13 8-16 7-10 11-16 13-18 12-16 8-11 7-9 11-15 7-10 9-12 16-22 9-12 8-11 10-14 13-17 8-12h2l2-4 11-16 15-20 8-11 10-14 13-18 9-12 8-11 14-19 12-16 9-11 9-10 14-12 17-11 12-7 24-7-7-14-9-16-8-15-8-21-5-21-1-8v-30l3-20 6-20 11-24 8-13 8-10 7-9h2l2-4 12-11 17-12 16-8 18-7 19-5zm1 65-15 3-13 5-13 8-12 11-9 10-8 14-7 17-4 16v26l5 17 8 16 7 11 6 7 8 7 11 8 17 8 10 3 12 2h24l16-3 23-11 13-10 4-3v-2h2l8-11 8-14 5-13 2-9 1-9v-16l-3-20-4-11-8-15-10-13-10-10-14-9-8-4-13-4-14-2zm447 26-8 4-15 10-13 10-11 8-14 11-13 11-13 10-12 10-14 10-9 7-13 10-12 10-14 11-12 10-16 12-27 21-15 12-13 10-18 13-14 10-9 4-14 3-26 3-109 9-64 5-25 3-21 5-17 8-11 9-10 10-9 11-10 13-13 18-12 16-9 13-11 15-7 9-9 12-13 18-12 17-7 9-10 13-12 16-11 16-9 12-8 11-8 10-8 12-20 28-10 13-9 12-7 10-10 14-9 11-11 13-4 7 8 2h10l25-3 22-2 9-3 11-10 4-6 11-13 12-17 7-9 20-26 7-9 10-13 12-16 13-17 9-12 8-10 10-14 7-9 10-13 8-11 9-12 12-15 11-14 10-13 12-13 8-6 2-1h10l9 4 9 7 6 9 4 12 5 51 10 112 2 29v49l-4 34-7 44-10 72-6 39-10 71-6 40-10 71-9 58-5 36-4 19 8-1 25-7 40-11 16-6 4-2 8-48 8-47 10-59 14-82 8-45 10-58 13-73 5-30 5-21 5-10 6-7 10-6h7l12 3 20 8 28 13 25 12 39 19 19 9 16 8 18 10 9 7 7 7 8 13 7 16 15 41 8 24 15 43 12 35 5 21 6-1 11-6 11-8 14-10 17-14 4-6-1-6-7-22-12-39-16-55-13-45-9-31-5-12-4-6-9-6-46-23-19-10-27-14-23-12-16-9-12-9-5-6-3-10-8-55-7-56-7-49-4-34v-7l5-10 12-13 13-11 19-14 17-13 15-12 11-8 18-14 13-10 10-8 19-14 13-10 12-9 18-14 13-10 19-14 18-14 26-20 36-26 9-7 2-2-1-6-11-18-7-10-6-11-5-7h-3zm-331 656-6 33-5 29-7 43-6 31-9 57-6 31-7 48-8 44-8 41-5 25 20-7 26-11 30-13 52-26 22-12 18-10 23-13 15-9 17-10 19-12 9-7 2-4-12-33-19-53-12-36-15-42-9-24-8-8-30-14-24-11-27-13-18-8z"></path><path transform="translate(344,1311)" d="m0 0h96l19 2 9 4 6 7 2 4 2 14 3 38 2 10 5 5 5 4 5 3 6-1 8-6 14-12 3-1 1-3 14-11 11-7 3-1h11l14 7 13 11 17 16 40 40 5 4v2h2l7 8 7 7 10 13 4 8 1 11-5 10-11 13-12 14-9 11-7 11 1 7 4 6 10 5 11 2 39 3 11 3 9 5 2 2 2 12 1 11 1 24v81l-1 25-2 11-3 5-6 5-14 4-7 1-33 2-14 2-3 1-6 12v8l4 8 7 9v2h2l7 8 11 12 8 13 2 8v8l-6 10-13 15-11 12-7 8-14 14h-2v2l-8 7-30 30-11 9-8 6-8 3h-10l-10-4-11-8-17-16-7-6-11-6-8-1-9 7-4 9-2 11-2 27-3 17-6 11-7 4-6 2-25 1h-88l-28-1-12-2-6-3-7-8-3-10-3-51-4-7-9-8h-8l-10 6-16 15-11 10-13 9-7 2h-10l-10-5-11-9-15-14-18-18-8-7-27-27-7-8-9-10-11-16-3-9 1-7 7-12 7-7 7-8 11-11 7-11 4-8-2-6-6-8-6-4-5-1-50-3-8-3-7-8-4-7-2-16v-118l2-17 4-9 4-5 8-5 7-1 40-3 12-2 6-4 6-10v-6l-6-10-14-17-10-11-6-8-5-8-1-6 2-10 7-12 12-14 12-13 13-13 7-8 15-15h2l2-4 15-14 11-10 13-9 9-3 9 1 9 4 14 10 11 11 14 11 6 5 10-1 6-4 6-7 2-5 1-42 3-14 6-9 6-4 8-2zm14 64-5 2-1 1-1 31-2 19-2 5-7 6-12 6-29 11-26 11-21 7h-7l-13-7-14-15-8-8-5-3h-8l-5 4-6 8-1 3-4 2v2l-4 2v2l-4 2-9 8-3 6 1 6 9 10 18 18 5 10v12l-5 16-13 29-6 16-8 18-8 11-3 2-16 2-34 1-5 3-1 12-1 34 2 11 5 3 6 1 37 2 10 5 8 9 8 18 7 19 12 27 5 16 1 13-12 16-8 6v2l-4 2-10 10-1 5 4 6 9 9 7 8 15 15 6 3 5-1 6-5 7-8 7-5v-2l4-2 4-5 12-7 10 2 19 7 20 8 24 9 21 11 6 4 3 6 1 8 1 36 1 8 10 1 27 1h20l7-2 1-46 3-13 5-4 21-9 29-11 29-13 4-1h13l8 4 10 9 8 7 10 9 8 4 6-2 5-5 2-4h2l4-5 8-7 14-14 1-5-4-6-11-11-7-8-10-12-4-7 1-8 7-18 11-25 9-25 8-17 3-5v-2l6-2 8-1 34-1 9-1 4-2 1-3v-51l-2-7-42-2-16-2-2-4-7-11-6-12-12-33-10-23-3-11-1-11 7-9 2-1v-2l4-2v-2h2l7-8 7-7 7-10-2-5-7-8-9-8-7-8-12-12h-8l-8 7-16 15-8 6-7 5h-13l-17-6-24-11-15-6-24-10-8-4-4-5-2-4-1-47-2-5-13-1z"></path><path transform="translate(1783,32)" d="m0 0h16l8 3 7 6 7 11 12 23 12 26 7 14 10 23 8 16 4 5 11 3 47 7 38 6 19 4 14 7 5 4 6 10 2 8v7l-3 8-10 13-13 14-7 8-18 18-1 2h-2v2h-2v2h-2v2h-2v2h-2v2h-2l-2 4-6 6h-2v2h-2v2h-2v2h-2l-2 4-8 8-2 5v9l2 8 5 34 6 38 6 29v8l-3 12-8 11-8 7-6 2h-10l-13-4-14-6-16-9-23-13-11-6-25-13-10-6-6-1-28 14-16 9-46 25-19 9-12 3-10-4-8-6-9-13-2-6v-15l6-29 6-37 4-25 4-19-3-9-8-10-9-10-12-12v-2h-2l-7-8-13-13-7-8-12-12-7-8-8-10-5-9v-12l4-10 7-8 14-7 50-9 23-4 32-4 12-3 3-1 2-5 7-16 8-17 8-18 11-23 9-19 7-14 10-10 5-3zm7 113-8 14-6 14-5 13-6 10-7 11-3 3v2l-14 7-17 4-36 5-20 2 2 5 15 16 11 12 15 15 8 10 6 12 1 4v17l-4 27-7 28-1 6 10-1 16-7 16-10 16-8 11-4h11l16 4 27 13 12 7 11 5 7 4 2-1-7-29-5-32v-21l5-12 9-10 3-3v-2h2l4-5 8-7 7-8 6-5 12-16v-4l-21-2-30-4-20-4-10-5-7-8-16-30-11-27-4-5z"></path><path transform="translate(364,1505)" d="m0 0h33l20 2 17 4 16 6 17 9 13 9 10 9 8 7 11 12 12 18 7 14 8 20 4 15 2 16v36l-4 25-5 15-11 22-14 20-9 11-9 9-13 10-21 12-20 8-17 5-19 3h-37l-18-3-18-5-18-8-15-9-13-10-10-9-8-8-12-16-9-15-8-17-5-16-4-19-1-12v-27l4-25 6-18 10-22 12-19 12-13 10-10 13-10 15-9 19-9 13-4zm8 63-13 2-14 5-17 9-13 12-11 14-9 19-5 17-2 17 2 20 4 14 8 17 9 12 11 11 15 10 16 7 11 3 7 1h21l17-3 11-4 17-9 14-11 8-9 7-11 4-8 5-13 2-11v-33l-4-15-5-12-7-12-8-10-12-11-15-9-16-6-10-2-10-1z"></path><path transform="translate(1798,1855)" d="m0 0h44l10 2 2 6v53l-4 2v2l-2 1h-35l-14-1-4-1-3-6v-49l2-7z"></path><path transform="translate(1867,1792)" d="m0 0h26l20 2 5 2 1 2v54l-3 4-6 1-44-1-7-2-4-7v-35l1-13 3-5z"></path><path transform="translate(469,222)" d="m0 0 34 1 5 2 3 3v56l-4 2-11 1h-45l-3-5v-37l1-18 3-3 3-1z"></path><path transform="translate(1932,1855)" d="m0 0h38l10 2 3 6v50l-1 3-8 2-30 2h-19l-5-5v-29l1-23 2-5z"></path><path transform="translate(69,128)" d="m0 0h52l4 1 1 2 1 14v27l-1 16-4 3-14 1-35-1-8-3-2-9v-31l2-16z"></path><path transform="translate(139,65)" d="m0 0h31l18 2 3 5v51l-3 5h-55l-3-3-3-6v-32l2-16 2-4z"></path><path transform="translate(405,288)" d="m0 0h38l4 3 1 4v48l-3 4-16 3h-34l-9-2-3-6v-42l1-8 4-3z"></path><path transform="translate(325,224)" d="m0 0h42l11 1 3 2 1 3 1 50-2 6-3 2h-28l-20-2-7-2-3-4-2-16v-12l2-19 3-7z"></path><path transform="translate(206,126)" d="m0 0h15l23 2 8 2 2 1 1 4v41l-1 12-5 2-21 1h-27l-7-1-2-4v-28l1-22 2-6 5-3z"></path><path transform="translate(393,161)" d="m0 0h21l27 2 5 3 1 4v50l-2 4h-25l-24-1-9-1-4-6-1-6v-16l2-20 2-9 3-3z"></path><path transform="translate(1904,1919)" d="m0 0h12l2 1 1 3v53l-3 3-14 2h-42l-3-1-2-8v-47l2-3 3-1 12-1z"></path><path transform="translate(180,192)" d="m0 0 9 1 2 5v50l-2 3-11 2h-46l-4-3-1-3v-45l2-7 4-2z"></path><path transform="translate(272,1926)" d="m0 0"></path><path transform="translate(271,1925)" d="m0 0"></path><path transform="translate(206,1450)" d="m0 0"></path><path transform="translate(205,1449)" d="m0 0"></path></svg>