<svg xmlns="http://www.w3.org/2000/svg" viewBox="0 0 2048 2048" width="128" height="128"><path transform="translate(79)" d="m0 0h85l-1 2-7 1v-2l-4 2 10 6 16 7 2 1h8l13-5 11-7 3-4v-1h78v6l16 7 14 4 9-1 14-7 6-5v-2h-23l-2-2h110l-5 6v2l20 8 8 1 14-3 12-7 3-3 1-4h86l-1 3-9-2v4l7 3 5 3 17 6h9l16-7 9-7v-3h79l-2 6 12 6 10 3 10 2 9-1 15-8 6-7-3-1h87l-3 3-6 1v2h3v2l5 2 13 5 5 2h9l14-5 10-7 3-5h77l-1 5 12 6 17 6h9l14-6 9-7v-2l-10 1-2-1v-2h95l-3 3v4l14 7 6 2h18l12-6 8-6v-2l-2-2h89l-4 3-8-1v2l14 7 12 5 6 2 9-2 16-8 6-5 1-3h79l-3 4 5 3 17 9 17 13 11 11 9 12 8 14 5 11 4 13 3 20v12l-3 22-5 15-10 19-1 9 8 18 6 13 4 18 1 7v16l-3 24-2 8 13-1 16-4h18l18 3 17 6 16 8 5 3h7l20-11 14-5 18-3h26l20 4 14 5 14 7 13 10 10 9 12 15 10 17 6 15 3 13 1 8v27l-2 14-4 13-9 17-3 8 1 9 8 17 6 12 2 9v32l-2 24-1 5 31-4h21l16 3 13 5 24 12 16-7 17-7 16-4 13-2h17l15 2 17 5 13 6 10 6 10 8 10 9 10 12 11 18 12 22v75h-2l-1-10h-4l-2 6-6 13-2 7v12l6 17 7 8v3h4v83l-3-3-2-6h-2l-6 10-2 5-1 6v15l3 12 5 12 6 3v-2h2v83l-5-3h-3l-5 8-3 8-1 4 1 13 4 15 8 12v2h4v81l-2-2-2-7h-3l-2 4-6 13-2 11 1 13 6 16 6 5 4 1v86h-2l-1-6h-2l-1-3-5 5-5 11v16l2 13 6 14 5 3 1-2h2v84l-3-1-2-6-6 7-4 9-2 9 1 12 4 15 8 10 1 4h2l-3-6v-2h4v89l-2-3-2-6h-3l-8 16-1 5v17l5 17 4 5 4 1v2l3 1v83l-4-4-2-4h-2l-7 14-1 3v16l3 14 5 8 3 7 5 1v70l-2 2-4 1-8 16-2 7v14l5 15 4 6 7 5v2h-3l1 3 2-2v71h-3l-9 16-10 14-9 10-7 8-8 7-14 10-26 13h-4v2h-67l1-3 2-1v-2l-12-7-13-4-6-1-17 3-10 5-11 8-1 2h-72l2-4 1-3-1-3-5-2-11-4h-8l-9-1-17 4-10 5-3 4 4 1v3h-84l1-3h6l-4-6-8-5-11-3h-16l-12 3-10 6-4 5 12-2-1 3-5 2h-84l2-3h2l-4-7-6-4-7-2-8-1h-9l-16 3-9 5-3 3 3 2v4h-83l1-3 3-1-2-5-9-5-8-2h-19l-12 3-10 5-3 6h5l-1 2h-85l4-4h2l-3-5-8-5-11-3h-14l-11 2-12 6-7 6-1 2 8-3 4 1-2 3h-85l3-3-1-5-6-5-8-3-10-1h-9l-14 3-10 5-3 2 2 7h-83l2-3h5l-4-6-9-5-11-3h-15l-11 3-12 6-5 6 11-4 4 1-1 3-10 2h-79l1-3 3-1-5-5-8-5-15-4-12 1-10 3-14 7-7 5 2 2h-64v-3l-16-8-17-9-13-10-10-10-10-14-9-17-6-17-3-17v-26l3-18 4-12 6-10 3-10v-8l-12-31-4-15-2-15v-9l4-24-1-7h-11l-15 2h-18l-20-3-13-4-23-11h-8l-9 4-16 8-19 4-8 1h-27l-17-3-15-5-17-9-9-7-10-9-9-10-10-16-9-20-4-16-1-9v-19l2-19 4-14 8-16 3-12-3-10-4-9-8-21-2-10-1-11v-15l3-18v-9h-10l-14 1h-18l-16-2-21-5-15-8-8-3-9 1-22 11-19 4-20 2h-8l-19-3-15-4-17-8-11-7-13-11-8-9-11-16-15-24v-70l5-4 6-12 4-16-1-9-8-18-6-4v-82l1 3 5-1 8-16 1-5v-9l-3-3v-2h2l-2-8-6-11-4-4-2-1v-73l4-5 7-10 4-11v-12l-7-18-6-9-2-2v-74l5-3 6-10 3-10 1-11-2-9-2-2-2-1 1-3-5-10-5-3v-76l6-4 6-9 3-9v-10l-4-15-5-11-6-3v-74l6-7 8-16 1-9v-3l-1-7-6-15-4-5-2-1v-2h-2v-78l5-1 6-9 3-10 1-9-3-1-1-5 3-1 1 2-2-8-8-15-5-5v-77l6 1 2-5 3-4 4-12v-11l-5-15-5-10-5-3v-74l4-4h2l2-6 4-9 3-10v-10l-4-10-5-10v-2l-6-2v-72l4-5 10-17 8-13 12-14 7-7 15-11 22-13zm762 3m-586 56-19 3-12 7-13 10-8 7-8 6-10 4-14-7-14-12-10-8-10-6-7-2-15-1-16 3-12 6-12 11-7 10-6 13-2 12 1 12 5 12 7 11 11 13 8 10 3 6v8l-6 11-9 11-11 17-7 16-2 5-1 9 3 12 4 9 7 11 9 11 8 10 4 8 1 9-7 11-13 17-9 16-5 13-1 5v12l6 15 7 11 8 9 8 10 5 10v10l-7 12-7 7-11 18-7 15-2 6v15l4 12 10 15 9 11 6 7 5 10 1 8-5 10-12 15-8 13-6 12-4 13v10l4 13 6 11 7 8 10 13 6 9 2 6-1 7-6 10-9 11-7 11-8 16-3 8-1 6v10l5 14 9 14 9 10 8 11 3 6v10l-6 11-8 10-11 17-7 16-2 6v13l4 12 6 11 13 16 3 4h2l2 5 4 9 1 7-6 11-12 15-11 19-4 10-2 9v10l5 14 6 10 11 13 9 12 4 11-1 6-7 11-9 11-8 13-8 16-2 7v15l5 13 7 11 9 11 10 13 4 7v10l-10 14-1 3h-2l-14 21-5 11-2 8v12l4 16 7 12 12 13 10 5 16 5 4 1h9l13-5 14-8 11-9 13-12 5-2 8 1 7 3 15 10 7 7 23 12 6 2 13 1 25-9 5-5v-40l1-15 4-16 7-11 4-11v-8l-6-21-6-13-3-11-1-11v-19l1-15 4-18 5-10 5-9 1-6v-9l-6-16-7-17-2-9-1-13v-17l2-18 4-15 9-18v-13l-2-12-9-20-3-15-1-11 1-28 4-20 6-11 4-8 1-4v-7l-5-17-7-17-3-13-1-13v-13l1-16 4-19 8-16 2-5v-13l-2-8-9-21-3-13-1-11v-22l2-17 4-14 9-18v-11l-4-16-7-16-3-15-1-8v-24l3-21 3-10 6-9 4-10v-10l-6-16-7-19-2-8-1-9v-26l2-14 5-16 7-14 8-14 11-13 9-8 16-10 14-7 17-5 13-2h31l14 3 13 5 22 11 8-1 15-9 14-5 15-3 6-1h29l19 4 29 13 5 2h6l9-5 10-7 19-5 13-2h23l16 2 14 5 21 11h13l21-11 18-5 15-2h20l15 2 17 6 19 9 6 3 7-1 18-11 21-6 12-2h27l18 4 28 13 8 2 9-1 10-6 8-5 20-5 12-2h19l17 2 16 6 20 11 1 1h7l11-4 16-9 17-5 19-3h12l13 2 14 4 20 9 11 5 8 1 10-5 5-4 8-4 17-5 13-3h17l16 2 7-1 5-3v-2h2l3-5 5-23v-9l-4-13-5-10-10-14-9-12-6-10-1-7 6-8 13-16 9-12 6-12 2-9v-14l-4-13-8-14-9-10-9-6-11-4-3-1-18-1-11 2-10 5-12 9-9 7-9 8-10 5-9-3-11-7-11-10-14-10-8-4-8-2h-19l-12 4-16 10-12 11-2 1v2l-4 2-9 4-10-1-12-6-15-13-11-8-11-5-4-1h-21l-11 4-11 7-11 9-8 7-8 5-5 2-8-1-10-4-11-8-11-9-11-8-11-4-5-1-15 1-9 2-12 7-18 14-8 7-9 4-9-1-9-4-11-8-10-9-16-10-8-2-13-1-14 3-10 5-18 14-13 10-8 3-11-2-11-6-17-14-8-6-10-5-8-2-19 1-12 5-15 11-11 9-7 6-7 3h-7l-12-5-12-9-18-14-8-4-13-3-13 1-13 4-11 7-22 18-8 4-9 1-16-8-13-11-12-9-10-5-4-1h-22l-13 5-13 10-20 16-10 3-9-2-10-5-25-20-10-5-12-3zm-253 94m539 193-16 2-14 7-10 8-11 8-8 8-8 5-17-9-11-10-16-12-7-4-9-2h-15l-14 3-12 6-10 9-7 9-7 14-2 7v17l5 13 6 10 7 9 14 15 4 8v7l-7 11-8 10-8 11-8 13-4 10-1 4v14l5 14 6 11 12 16 5 4 7 10 1 1v8l-5 9-8 10-11 15-7 12-5 14v14l5 16 6 10 12 14 9 10 4 7-1 9-5 9-8 10-13 18-8 17-2 12 3 13 7 16 10 14h2l2 4 9 10 4 9-1 6-6 10-11 13-12 20-4 8-3 11v7l5 16 6 11 11 14 7 8 4 5 4 7v7l-8 12-10 12-4 6-6 10-7 15-1 3v16l5 15 8 13 12 13 8 11 2 5v9l-7 11-9 10-7 11-6 9-5 11-1 4v16l5 14 6 11 10 13 10 10 4 8 1 9-9 12-12 15-6 9-5 9-3 7-1 4v16l4 14 5 10 11 12 12 16 4 10-3 9-8 10-8 9-8 13-8 16-2 9 1 12 5 13 6 11 9 11 10 11 6 12-1 6-7 11-9 10-10 15-6 10-3 11-1 8 3 15 5 12 10 13 8 7 14 6 16 4h10l17-8 14-10 11-9v-2l4-2 6-4h8l9 3 12 8 13 11 16 8 10 4h15l18-5 8-5 2-10-1-18v-13l2-16 5-19 6-11 4-10v-8l-5-17-6-13-5-21-1-8v-19l3-20 6-16 6-9 2-7v-13l-12-27-3-12-2-21v-9l3-23 5-15 6-9 2-5v-18l-3-9-7-15-5-21-1-12v-10l3-23 3-12 9-15 2-5v-13l-7-18-6-15-4-25v-12l3-24 5-15 6-10 2-6 1-16-8-16-5-14-3-15-1-11v-16l4-23 4-10 8-15v-15l-4-14-5-10-4-14-3-19v-18l3-20 4-12 6-9 4-8 1-9-2-8-10-24-4-12-2-15v-16l3-21 6-18 12-22 9-12 11-11 15-10 19-9 13-4 17-3h25l16 3 13 5 19 9h4v2l7-1 7-3 14-7 27-7 12-2h15l22 5 17 7 13 6 8 2 9-3 16-8 21-6 19-3h14l19 4 12 4 5 4 16 7 8 1 10-4 15-7 20-6 19-3 18 1 17 4 15 6 14 7 7 3 5-1 24-11 25-7 14-2 14 1 25 6 23 11 7 2 7-1 23-10 21-6 10-2 18-1 18 3 18 7 20 10 9-1 12-5 15-6 22-6 11-2h13l17 3 12 4 22 10 9 3h6l15-9 19-6 16-3 22-1h13l10-2 5-3 3-7 3-19v-15l-5-14-9-12-12-15-7-14v-7l4-8 5-5v-2h2l9-11 8-11 4-8 3-15-1-12-2-9-7-14-9-11-10-7-10-4-12-2h-10l-12 2-12 6-14 11-6 4v2l-4 2-5 5-9 4-5-1-10-5-11-10-14-11-8-6-9-3-16-1-16 4-13 7-18 13-11 9-6 3h-7l-14-9-10-9-13-10-13-6-4-1h-21l-12 4-19 14-12 9-10 6-7 2-9-4-11-7-10-9-10-8-10-5-6-2-12-1-15 2-12 6-13 10-9 6v2h-2v2h-2v2l-4 2-8 3v2l-7-1-13-8-17-14-13-9-7-3-16-2-16 3-10 5-13 9-20 16-12 3-14-8-17-14-11-8-12-5-9-1-15 1-11 4-9 6-7 6-9 6-8 7-10 6-2 1-6-3-8-3-12-10-20-15-10-4-16-2-17 3-9 5-9 7-8 6-15 12-12 3-14-8-14-12-10-8-12-6-4-1h-20l-12 3-9 5-12 9-9 7-9 8-9 4-12-5-11-8-8-7-13-10-8-4-12-3zm147 288-16 2-14 7-10 10-8 12-6 16-1 5v11l6 16 7 11 9 10 10 11 5 10v6l-8 12-11 13-13 20-5 13-1 3v7l4 15 8 16 9 10 7 8 7 9 2 5v7l-7 12-13 16-7 10-7 15-2 7 1 15 5 16 9 13 7 7 7 8 5 7 2 6v7l-7 11-10 13-12 17-8 17 1 13 5 15 6 12 12 14 11 12 2 7v6l-9 14-10 12-6 9-8 14-4 12v7l4 15 8 16 9 10 7 8 6 8 3 7v6l-7 12-12 15-10 14-7 16-1 8 4 17 5 12 7 10 7 7 9 11 4 7 1 3v7l-7 11-8 10-9 12-9 15-4 10v10l4 14 7 14 13 16 7 7 5 8 1 9-6 11-14 18-7 10-7 14-2 8v10l4 16 7 13 7 7 11 14 5 10 1 9-9 15-8 9-7 10-8 15-4 11v9l5 14 6 12 10 13 10 11 5 9 1 9-6 10-11 13-7 10-9 15-3 10v11l5 17 8 15 12 11 9 4 13 4 6 1h15l15-4 6-5 2-7 1-10 1-779v-525l-4-12-5-5-6-3-16-2zm129 1-16 3-6 3-3 3-3 16-1 16v1284l4 16 5 4 17 4 18 2 13-1 12-6 5-6 2-8 1-46v-117l1-159 1-13 5-6 9-4 4-1h18l13 3 6 4 2 4 1 53 1 276 2 12 3 5 3 3 13 4 16 2h20l10-3 6-7 3-15 1-53v-1243l-2-18-3-6-7-3-11-2h-24l-16 3-8 4-4 8-1 10-1 68-1 690-1 89-1 7-6 7-8 3-6 1h-18l-9-3-5-5-3-7-2-15-1-818-1-23-2-9-4-6-16-4zm277 0-17 3-9 4-3 18-1 27v1274l4 16 4 3 20 4 6 1h20l12-2 6-4 3-8 1-7 1-43 1-1235-1-30-4-14-5-4-11-3zm136 0-15 3-7 3-2 4-2 12-1 16-1 241v787l1 265 3 9 4 5 11 3 19 2h16l10-3 6-4 4-5 2-6 1-7 1-174v-174l-1-387v-79l1-97 1-43 3-7 3-3 12-4 6-1h11l15 3 6 4 2 5 1 870 1 92 3 12 5 3 13 3 8 1h31l7-2 4-4 4-13 1-19 1-322v-955l-1-14-4-13-6-4-12-3h-24l-18 3-8 4-2 2-1 4-1 38-1 117-1 70-2 15-4 5-11 3-7 1h-10l-11-2-6-4-4-4-3-11-1-31-1-187-2-11-3-6-11-4-10-2zm278 0-18 3-6 2-2 5-2 11-1 23v1283l3 13 4 5 12 3 16 2h15l16-3 6-4 3-9 1-8 1-44v-1246l-1-17-4-13-5-3-16-3zm139 0-19 3-6 3-2 4-2 22-1 216v1077l2 15 5 5 12 3 12 1h24l10-3 5-5 3-4 2-6 1-7 1-107 1-72 2-9 4-6 5-3 12-3h15l12 3 6 4 3 7 1 114 1 81 3 9 4 3 20 4 11 1h10l14-2 8-5 4-11 1-5 1-19v-1283l-2-10-4-10-6-3-9-2h-24l-24 4-5 2-2 11-1 30-1 959-2 13-2 5-9 4-11 2h-13l-9-2-9-7-2-5-2-15-1-114v-852l-1-16-3-9-6-5-13-4-6-1zm272 0-11 2-8 4-4 8-2 11-1 247v1053l2 13 2 4 9 4 18 4h20l13-5 10-8 8-9 8-17 2-9v-15l-5-15-9-14-12-16-5-10-1-8 3-8 5-8 9-10 11-18 3-7 2-11v-9l-3-12-6-12-12-17-8-11-3-8-1-10 3-7 11-12 9-13 8-16 2-13v-9l-5-16-9-13-12-16-6-12v-12l4-9 11-11 10-15 4-8 3-14v-12l-4-13-5-10-8-10-10-13-4-8-2-7v-7l3-7 5-6v-2l4-2 9-11 9-16 3-14v-10l-3-13-6-11-14-19-7-11-2-6v-14l4-7 4-3v-2l4-2 11-14 7-14 2-10v-14l-5-15-7-12-9-10-9-14-3-12 2-10 4-6 7-6v-2h2l13-20 3-7 2-11v-12l-3-12-8-15-11-13-7-10-4-13v-7l5-9 10-10 8-11 8-16 2-10v-12l-3-12-7-13-12-15-8-12-2-7v-12l4-8 8-7 13-18 5-11 2-9v-17l-6-16-7-10-9-11-9-14-2-5v-12l5-8 12-12 7-10 6-10 2-9v-18l-4-16-5-10-8-10-9-7-16-5z"></path><path transform="translate(458,594)" d="m0 0h15l13 5 6 5 4 11v17l-3 8-5 6-12 6-4 1h-10l-10-5-10-10-8-13 1-7 4-8 8-8 9-7z"></path><path transform="translate(785,441)" d="m0 0 12 2 12 6 4 5 3 9v16l-3 9-7 8-13 4h-11l-12-5-8-8-6-13v-10l7-11 7-7 9-4z"></path><path transform="translate(465,441)" d="m0 0 9 1 9 4 6 4 6 9 1 5v16l-4 9-5 5-13 7h-11l-14-7-7-7-7-14 1-8 9-14 7-6z"></path><path transform="translate(621,441)" d="m0 0h10l10 4 8 5 4 5 3 8v15l-4 11-6 7-6 3-4 1h-14l-11-5-6-4-6-8-3-10 1-8 7-12 6-7 8-4z"></path><path transform="translate(463,746)" d="m0 0h8l10 3 9 6 5 9 2 12-1 11-6 8-8 5-10 4-7 1-6-2-10-5-3-2v-2h-2l-6-10-3-7v-9l8-10 6-7 9-4z"></path><path transform="translate(458,1506)" d="m0 0h13l14 5 8 6 3 6v17l-3 10-6 8-11 6-5 1h-7l-9-3-10-9-7-9-2-5v-11l3-6 7-7 10-8z"></path><path transform="translate(459,898)" d="m0 0h12l9 3 10 5 4 6 2 6v15l-3 10-6 7-8 4-6 2h-12l-7-3-8-7-7-9-3-7v-11l3-6 13-12z"></path><path transform="translate(1582,442)" d="m0 0 14 2 9 4 5 3 5 7 1 3v19l-6 12-9 6-6 2h-11l-10-3-8-5-5-6-4-11v-10l9-17 6-4z"></path><path transform="translate(942,442)" d="m0 0h11l11 4 8 7 3 7 1 7v9l-2 9-5 8-3 3-9 3-14 1-12-5-8-7-6-12-1-3v-8l5-8 7-9 6-4z"></path><path transform="translate(1265,442)" d="m0 0 13 2 12 6 4 6 2 7v16l-3 9-7 8-8 3-6 1h-9l-13-5-8-7-4-8-2-11 4-10 8-11 7-4z"></path><path transform="translate(459,1202)" d="m0 0h9l12 3 10 5 4 4 2 6v18l-4 11-7 6-12 5h-12l-7-3-7-6-8-10-3-6v-11l6-9 12-11z"></path><path transform="translate(459,1355)" d="m0 0h16l12 5 5 5 3 6 1 5v16l-3 7-6 7-12 5-5 1h-9l-12-6-7-8-7-14v-7l6-8 10-11z"></path><path transform="translate(1424,442)" d="m0 0 11 1 10 4 7 7 3 7v18l-4 10-6 7-9 4-9 1-8-2-9-4-8-7-5-11-1-10 6-12 7-8 9-4z"></path><path transform="translate(1103,442)" d="m0 0h8l9 3 10 6 4 6 2 9v11l-3 9-4 6-5 4-8 3-13 1-14-6-5-5-5-8-3-8 1-9 8-12 4-5 9-4z"></path><path transform="translate(459,1051)" d="m0 0h15l11 4 6 5 4 10 1 8v9l-3 9-5 5-5 3-16 4-9-2-10-5-6-7-4-8-2-7v-6l4-6 9-12 5-3z"></path><path transform="translate(470)" d="m0 0h11l-2 4-7 1z"></path><path transform="translate(0,321)" d="m0 0 4 2-1 6-1 1 1 3-3 1z"></path><path transform="translate(887)" d="m0 0h9l-3 4-6 3z"></path><path transform="translate(1301)" d="m0 0h9l-2 1-1 3h-6z"></path><path transform="translate(614)" d="m0 0h8l-4 4h-5z"></path><path transform="translate(729,2044)" d="m0 0 4 1-1 3h-9l3-3z"></path><path transform="translate(0,594)" d="m0 0 3 2v9h-3zm1 6 1 2z"></path><path transform="translate(1159)" d="m0 0h10l-3 4-5 1z"></path><path transform="translate(197)" d="m0 0h9l-2 1v2l-7 1z"></path><path transform="translate(1834,2044)" d="m0 0h2l-1 4h-10l3-2z"></path><path transform="translate(0,738)" d="m0 0 4 1-1 5-3 1z"></path><path transform="translate(5,585)" d="m0 0 5 2v3l2 1-4 1z"></path><path transform="translate(177)" d="m0 0h10l-3 2-5 1-2-1z"></path><path transform="translate(2047,1831)" d="m0 0h1v9h-2v-8z"></path><path transform="translate(743)" d="m0 0h10l-3 1v2l-7-2z"></path><path transform="translate(0,1011)" d="m0 0h3v5l-3 1z"></path><path transform="translate(6,446)" d="m0 0 5 1v5l-3-1z"></path><path transform="translate(2046,1060)" d="m0 0h2v5l-3-1z"></path><path transform="translate(317)" d="m0 0h9v1l-9 1z"></path><path transform="translate(2045,1748)" d="m0 0h3v4l-3-1z"></path><path transform="translate(2047,1602)" d="m0 0h1v5h-2l-1-4z"></path><path transform="translate(0,468)" d="m0 0 3 1v3h-3z"></path><path transform="translate(1278)" d="m0 0h5l-5 4z"></path><path transform="translate(2046,1332)" d="m0 0h2v4l-3-1z"></path><path transform="translate(1400)" d="m0 0h8l-4 2z"></path><path transform="translate(4,441)" d="m0 0 5 1v2l-4-1z"></path><path transform="translate(9,173)" d="m0 0 3 1v2l-4-1z"></path><path transform="translate(2047,915)" d="m0 0 1 4-3-1z"></path><path transform="translate(754)" d="m0 0h8v1h-8z"></path><path transform="translate(172)" d="m0 0 4 1-1 2h-2z"></path><path transform="translate(2047,1873)" d="m0 0h1v5l-2-1z"></path><path transform="translate(0,872)" d="m0 0 3 4h-3z"></path><path transform="translate(779,2042)" d="m0 0h3v2h-3z"></path><path transform="translate(0,1156)" d="m0 0 3 3h-3z"></path><path transform="translate(1,462)" d="m0 0 2 4-3-3z"></path><path transform="translate(0,457)" d="m0 0 2 2-2 3z"></path><path transform="translate(0,437)" d="m0 0 3 3h-3z"></path><path transform="translate(867)" d="m0 0h5l-2 2z"></path><path transform="translate(588)" d="m0 0h5l-3 2z"></path><path transform="translate(1289,2043)" d="m0 0 4 1-2 1z"></path><path transform="translate(0,1040)" d="m0 0 2 2-2 2z"></path><path transform="translate(10,443)" d="m0 0 1 2-2 2z"></path><path transform="translate(596)" d="m0 0 4 1-3 1z"></path><path transform="translate(2047,1616)" d="m0 0v3z"></path><path transform="translate(0,1019)" d="m0 0 2 2-2 1z"></path><path transform="translate(0,578)" d="m0 0 3 1h-3z"></path><path transform="translate(876,2046)" d="m0 0 1 2-2-1z"></path><path transform="translate(1469,2042)" d="m0 0 1 2-2-1z"></path><path transform="translate(2047,1186)" d="m0 0"></path><path transform="translate(2,1018)" d="m0 0 2 1-2 1z"></path><path transform="translate(10,997)" d="m0 0 1 2-2-1z"></path><path transform="translate(1007)" d="m0 0 3 1z"></path><path transform="translate(1696,2047)" d="m0 0 2 1z"></path><path transform="translate(1561,2047)" d="m0 0 2 1z"></path><path transform="translate(652,2047)" d="m0 0 2 1z"></path><path transform="translate(1828,2044)" d="m0 0 2 1z"></path><path transform="translate(10,1278)" d="m0 0"></path><path transform="translate(2046,1201)" d="m0 0 2 1z"></path><path transform="translate(13,870)" d="m0 0"></path><path transform="translate(2047,789)" d="m0 0"></path><path transform="translate(0,626)" d="m0 0 2 1z"></path><path transform="translate(862)" d="m0 0"></path><path transform="translate(1012)" d="m0 0 2 1z"></path><path transform="translate(1963,2047)" d="m0 0"></path><path transform="translate(1887,2047)" d="m0 0"></path><path transform="translate(648,2047)" d="m0 0"></path><path transform="translate(723,2044)" d="m0 0"></path><path transform="translate(1884,2043)" d="m0 0"></path><path transform="translate(11,1142)" d="m0 0"></path><path transform="translate(2,1040)" d="m0 0"></path><path transform="translate(6 1e3)" d="m0 0"></path><path transform="translate(435,916)" d="m0 0"></path><path transform="translate(436,915)" d="m0 0"></path><path transform="translate(10,863)" d="m0 0"></path><path transform="translate(9,862)" d="m0 0"></path><path transform="translate(2046,787)" d="m0 0"></path><path transform="translate(0,765)" d="m0 0"></path><path transform="translate(2044,727)" d="m0 0"></path><path transform="translate(0,629)" d="m0 0"></path><path transform="translate(0,607)" d="m0 0"></path><path transform="translate(10,583)" d="m0 0"></path><path transform="translate(9,582)" d="m0 0"></path><path transform="translate(4,582)" d="m0 0"></path><path transform="translate(4,306)" d="m0 0"></path><path transform="translate(14,183)" d="m0 0"></path><path transform="translate(10,171)" d="m0 0"></path><path transform="translate(9,170)" d="m0 0"></path><path transform="translate(10,168)" d="m0 0"></path><path transform="translate(351,3)" d="m0 0"></path><path transform="translate(628,1)" d="m0 0"></path><path transform="translate(1157)" d="m0 0"></path><path transform="translate(990)" d="m0 0"></path><path transform="translate(763)" d="m0 0"></path><path transform="translate(741)" d="m0 0"></path><path transform="translate(624)" d="m0 0"></path><path transform="translate(0)" d="m0 0"></path></svg>