<svg xmlns="http://www.w3.org/2000/svg" viewBox="0 0 2048 2048" width="128" height="128"><path transform="translate(1359,64)" d="m0 0h28l17 3 13 5 11 6 10 8 10 10 10 15 8 15 5 17 1 12v14l-3 16-6 15-7 12-7 9-10 11-11 8-14 8-5 5-1 4v53l2 5 11 3 27 5 19 7 10 6 11 9v2h2l8 10 8 13 6 12 7 24 6 30h16l13-2h18l12 3 11 4 12 6 11 8 10 8 17 16 27 27 17 13 26 15 24 13 16 9 27 15 21 12 22 12 12 7 11 6 28 15 20 12 16 10 13 10 13 12 8 8 12 16 10 18 8 19 4 15 2 13 1 14v778l-1 27-2 18-5 15-7 12-9 12-9 10-14 9-12 5-20 4-22 2-26 1-64 1-1 55-1 21-3 18-7 16-10 15-11 12-10 7-16 8-10 3-17 2-17 1-61 1-155 1-1 53-1 104-4 2-56-1-3-3-1-15v-102l-1-38-35-1h-26l-2 158-1 1-36 1h-19l-7-2-1-2-1-51 1-105h-222l-2-2v-57l2-5 256-1 30-1-1-23v-600l-3-12-5-12-17-35-8-15-8-17-10-19-143-286-10-19-11-23-24-48-11-23-15-32-4-2-9 3-17 9-23 13-27 15-22 12-23 13-28 15-24 14-20 12-16 12-13 13-6 10-8 20-2 9-2 18-1 35v111l-1 1-24 1h-36l-4-2v-138l1-28 3-19 4-13 5-12 8-16 9-14 14-17 10-9 9-8 15-10 24-14 27-15 14-8 27-15 10-6 14-7 23-13 22-12 42-24 16-10 13-11 10-9 22-22 6-5 5-5 12-10 13-9 17-9 15-4h16l17 3h14l4-16 8-30 6-16 8-14 6-8 13-13 10-7 15-7 17-4 23-3 9-3v-16l-1-36-2-11-7-6-11-7-12-9v-2h-2l-7-8-9-13-8-17-4-14-1-6v-20l3-16 6-17 6-10 8-11 15-15 19-11 17-5zm10 63-7 3-10 9-7 9-2 6v11l3 8 9 10 9 6 9 2 11-1 10-6 7-6 6-10v-11l-3-10-6-10-9-7-11-3zm-43 257-12 2-5 5-6 9-7 18-7 28-5 16-2 5 1 5 12 10 24 16 19 14 10 7 11 7 15 9h6l10-8 15-10 17-11 11-8 12-8 16-12 7-6 1-3-9-31-7-26-5-12-5-8-6-5-6-2-10-1zm-143 113-10 9-11 8-11 10-8 7-5 6 1 5 16 16 14 11 11 10 17 13 9 8 9 7 13 11 10 8 10 9 8 7 10 9 5 3 5-1 5-5 7-10 13-16 24-32 3-3-1-4-7-7-10-6-54-36-23-15-13-8-16-9-13-5zm372 0-10 5-18 10-24 16-14 10-22 15-12 8-14 9-12 7-6 5 1 6 9 10 8 11 10 13 12 17 9 12 5 3 5-1 8-7 10-9 10-8 12-10 11-9 15-13 10-8 16-13 8-6v-2l4-2 11-9 12-11 5-6-2-5-10-10-6-5h-2l-2-4-11-9-10-7-7-3zm121 90-5 12-8 16-16 33-13 27-8 16-14 27-9 19-66 132-8 17-10 19-9 19-10 19-9 19-10 19-16 32-17 33-35 70-4 11-1 14-1 90v528h270l23-1 10-2 7-4 6-8 3-14 1-58v-372l1-431 1-5h36l21 1 4 2 1 5v600h51l74-1 3-1v-64l-1-636-2-16-3-10-8-16-7-9-12-12-16-11-15-9-26-15-23-13-45-25-25-14-22-12-23-13-14-8zm-300 47-7 3-7 9-10 14-10 13-10 14-11 13-11 10-12 6-16 4h-18l-16-5-11-6-43-33-2-1h-4l2 5 16 28 21 42 9 19 8 16 11 21 9 19 47 94 9 19 10 19 21 42 9 19 7 16 7 10 2 2 12-23 40-80 13-25 9-19 8-16 14-27 11-23 19-38 10-19 8-16 11-23 10-19 11-20 6-13 4-8v-3l-4 1-14 11-11 9-9 7-14 9-16 6-16 3h-16l-13-5-11-8-13-13-9-11-10-13-14-19-8-11-6-6zm416 901-1 1v62l7 1h62l27-1 14-2 10-6 4-6 3-12 1-14v-22l-1-1z"></path><path transform="translate(193,991)" d="m0 0 56 1 7 2v47l-1 77h128v-104l1-21 2-2 55 1 7 2v48l-1 77h193v-8l5-25 7-16 10-14 12-12 13-9 12-6 18-4 20-2 38-1h57l31 1 25 3 13 4 11 6 9 6 10 9 8 9 9 14 7 14 3 12 1 9v274l-2 44-2 18-4 15-5 13-10 18-14 20-12 13-8 7-13 9-18 10-22 9-12 4-5 2v95l-2 2-17 1h-43l-3-2v-75l-1-20-16-6-20-8-18-10-11-8-14-12-11-12-10-14-8-14-10-24-6-16-1-2-13-1-117 1 1 17-1 211v59h98l155-1h72l60 1 23 2 13 4 15 8 11 9 10 10 11 16 7 15 4 17 2 24v47l-2 24-4 17-4 9-4 8-10 14-4 5-8 7-13 8-12 5-12 3-19 2-20 1-101 1h-601l-29-1-15-2-14-4-13-7-13-11v-2h-2l-11-14-9-16-5-14-3-14-1-15v-51l2-25 4-17 5-12 9-14 8-9 8-7 9-7 17-8 28-6 7-1-1-20-1-102v-163l-13-3-20-5-16-8-13-10-12-12-9-13-7-16-3-13-1-9-1-25v-99l1-19 4-24 6-15 9-14 9-10 10-9 13-8 8-4 14-3 54-4v-109l1-17zm595 96-47 1-16 1-10 3-6 7-3 9-2 23-1 115v139l1 25 3 24 3 10 6 12 10 13 12 12 18 11 14 6 18 4h21l20-4 16-7 12-7 12-11 7-7 6-10 6-14 4-13 2-14 1-27v-57l-1-213-2-13-5-10-6-5-16-2-33-1zm-585 96-50 1-9 1-5 3-5 8-4 12-2 13-1 36v77l2 17 4 11 6 8 9 3 16 2h475l1-1-1-64v-126l-1-1zm25 256-5 1v287l159 1h49l16-1 1-1-1-55v-232zm-8 352-70 1-8 2-6 7-5 13-3 12-1 8-1 19v16l2 21 4 12 6 9 6 5 8 2 9 1h703l31-1 13-2 6-3 7-8 3-7 2-12 1-14v-33l-2-25-4-11-5-7-6-3-9-1-31-1z"></path><path transform="translate(1242,1569)" d="m0 0h11l10 2 7 4 4 5 3 11v17l-2 9-5 8-7 3-5 1h-22l-8-3-6-7-5-10-1-4v-18l4-8 11-7z"></path><path transform="translate(1242,1409)" d="m0 0h10l11 2 7 4 4 5 2 6 1 8v10l-2 13-5 8-7 3-6 1h-20l-8-3-6-5-6-12-1-4v-17l3-7 9-8 8-3z"></path><path transform="translate(1239,1249)" d="m0 0h15l11 3 7 6 4 8 1 6v16l-2 8-5 8-7 4-11 2-15-1-10-4-6-7-4-8-1-4v-16l3-8 4-5 10-6z"></path><path transform="translate(1190,675)" d="m0 0"></path><path transform="translate(1611,536)" d="m0 0"></path></svg>