<svg xmlns="http://www.w3.org/2000/svg" viewBox="0 0 1024 1024" width="1280" height="1280"><path transform="translate(394)" d="m0 0h26v2l16 6 19 4 16 2 14 1h54l22-2 18-3 17-5 10-5h22l16 5 83 23 52 15 16 6 18 10 13 11 14 14 9 11 9 10 9 11 10 11 9 11 10 11 9 11 11 12 9 11 9 10 9 11 9 10 7 8 11 13 13 15 9 10 18 22 6 9 6 14v4l2 1v32l-2 2-5 12-7 12-13 15-9 11h-2l-2 4-11 12-7 8-9 10-9 11-15 15-9 6-10 5-14 4-6 1h-12l-15-3-46-15-1 27v482l-1 21-3 10-6 11-8 9-13 8-9 4h-536l-16-8-8-6-7-8-7-14-2-12v-525l-38 13-19 5-7 1h-10l-16-3-16-8-8-6-15-15-9-11-12-13-7-8-9-10-9-11-12-13-10-15-5-12-2-6v-29l8-19 9-13 26-30 7-9h2l2-4 9-10 9-11 11-12 8-10 10-11 9-11 9-10 7-9h2l2-4 3-4h2l2-4 12-14 10-11 8-10 13-15 10-11 6-7h2v-2l17-13 16-8 16-6 72-20 56-16 18-5zm-4 39-87 24-49 14-13 5-14 9-12 11-9 11-10 11-9 11-10 11-9 11-11 12-9 11-9 10-9 11-10 11-9 11-10 11-9 11-11 12-9 11-11 12-9 11-11 13-5 9-1 5v15l3 8 8 11 12 13 8 10h2l2 4 11 12 7 8 12 14 12 13 9 6 10 3h8l15-4 49-16 1-1 1-94 3-6 1-3 5-2 2-1h11l6 3 4 5 1 2 1 656 3 9 6 5 4 1h520l6-3 5-6 1-2 1-350v-306l3-8 6-5 2-1h11l6 3 4 4 2 7v90l2 3 43 14 16 5 11 1 9-2 9-5 10-9 5-6v-2h2l9-11 14-15v-2h2l9-11 10-11v-2h2l7-8 7-11 2-4 1-6v-11l-4-11-6-9-13-15-9-10-9-11-11-12-9-11-9-10-9-11-9-10-9-11-11-12-9-11-11-12-9-11-9-10-9-11-9-10-9-11-14-15-14-10-15-7-34-10-104-29h-3l-5 27-6 16-7 14-8 11-11 13-12 10-15 9-16 7-13 4-20 3h-16l-23-4-16-6-16-8-12-9-12-11-11-14-9-16-6-15-4-17-2-14zm38 4 2 13 6 16 9 14 11 12 13 9 12 6 14 4 7 1h21l17-4 16-8 9-6 11-10 9-13 6-13 4-13 1-8-9 1-32 5-9 1-20 1h-32l-28-2-30-5z"></path><path transform="translate(367,358)" d="m0 0h288l10 4 8 6 7 9 3 9v319l-3 10-7 9-6 5-9 4-4 1h-285l-11-4-10-9-5-8-2-6-1-314 2-11 5-10 8-8zm9 35v229l4-2 12-12 8-7 17-16 8-7v-2l4-2 8-6 10-4h15l12 5 10 9 30 30h2l2 4 3 3 4-1 18-18 8-7 9-9 8-7 9-6 8-3h15l10 4 6 4 10 9 21 21h1v-209zm216 205-10 9-17 16-15 14-2 2 1 4 9 9h2l2 4h2l1 3 7 6 5 6 6 5 6 7 5 5h2v2l8 7 2 2h42v-47l-7-8-8-7-39-39zm-138 0-8 7-17 16-13 12-17 16-15 14-8 7v29h180l-6-7-93-93z"></path><path transform="translate(454,426)" d="m0 0h13l12 3 11 6 10 9 7 10 4 10 1 5v18l-4 12-6 10-2 3h-2l-2 4-10 7-12 5-6 1h-16l-13-4-11-7-8-8-8-14-3-11v-15l4-13 5-9 9-10 11-7 10-4zm4 35-8 3-5 7-1 3v7l5 9 7 4h9l7-4 4-5 1-4v-7l-4-8-6-4z"></path><path transform="translate(287,699)" d="m0 0 10 1 6 4 4 6 1 5v51l51 1 8 2 5 4 3 5 1 10-5 10-7 4-21 1h-32l-12-1-9-4-9-7-5-7-3-8-1-6v-56l3-8 8-6z"></path><path transform="translate(312,289)" d="m0 0h28l24 1 7 4 4 6 1 10-3 7-4 5-4 2-31 1h-25l-1 45-1 11-3 5-5 5-3 1h-12l-6-4-4-4-2-9v-53l3-12 6-9 8-7 10-4z"></path><path transform="translate(730,699)" d="m0 0 10 1 6 4 4 5 1 3v63l-4 10-7 9-10 6-7 2-20 1h-38l-8-2-6-5-3-7v-8l4-8 6-5 5-1h53v-54l4-8 7-5z"></path><path transform="translate(696,289)" d="m0 0 28 1 10 4 8 6 6 9 3 7v65l-4 6-4 4-3 1h-12l-6-3-4-5-2-5v-55l-6 1h-43l-10-2-6-5-3-7v-8l4-8 5-4 2-1z"></path><path transform="translate(630)" d="m0 0"></path></svg>