<svg xmlns="http://www.w3.org/2000/svg" viewBox="0 0 1024 1024" width="1280" height="1280"><path transform="translate(605)" d="m0 0h40l17 5 16 8 9 6 10 9 7 7 10 16 7 17 4 18 1 8v22l-3 19-5 18-8 19-11 19-13 18-30 42-14 20-9 13-26 39-10 16-6 11-12 23-6 16-3 18v17l9 81 1 8 19 4h17l15-3 7-3 6-37 6-25 6-18 9-19 9-14 9-12 13-15 18-18 11-9 10-9 14-11 16-13 9-5 9 1 6 4 3 4 1 10-3 6-7 7-16 12-9 8-11 9-4 5h-2l-2 4-8 11-8 16-4 13-2 11v10l3 14 6 12 8 9 16 8 14 3h25l17-3 20-6 25-11 21-12 16-11 12-9 11-9 12-11 8-7 16-17 13-17 10-16 8-16 6-18 3-16v-14l-3-14-5-10-6-7-11-7-9-4-10-2h-23l-14 3-16 6-14 8-15 12-28 22-6 3h-8l-8-5-3-6v-9l4-6 10-9 9-7 16-13 17-12 17-9 21-7 17-3h25l16 3 15 6 12 7 12 11 8 10 7 14 4 15 1 7v19l-3 18-5 17-9 21-9 16-10 14-9 12-13 14-1 2h-2l-2 4-8 8-8 7-10 9-14 11-15 11-17 11-22 12-20 9-24 8-25 5-12 1h-10l-17-2-15-4-14-6-14-10-10-11-9-16-5-15-1-8-2 2-6 21-6 33-4 29-5 17-8 15-9 11-10 9-18 11-23 13-21 12-17 10-10 9-20 20h-2v2h-2v2l-8 7-27 27h-2v2l-8 7-9 9-8 7-9 9-8 7-16 15-8 7-12 11-8 7-14 12-10 9-8 7-2 2 12 1h14l18-2 19-5 16-6 17-8 20-12 17-12 14-11 10-8 28-24 13-12 11-9 15-14 8-7 14-12 14-11 16-12 19-12 19-10 21-7 20-3h9l17 2 17 6 12 7 9 7 7 6v2h2l11 14h3l2-4 20-20-1-5-5-10v-15l4-9 7-8 6-7 6-5 5-6 10-7 6-2h13l10 4 11 9 20 20 5 8 1 7-4 8-5 4-2 1h-10l-6-4-24-24-3-1-18 18 2 4 114 114 4-2 16-16-3-5-45-45-3-5-1-6 3-8 5-5 9-2 9 4 15 14 31 31 8 10 4 7v21l-4 4-9 11-15 15-10 7-12 3-10-1-8-4-2-2-5 1-200 200 1 5 3 4 2 5 1 13-4 11-9 11-15 15h-2v2l-12 8h-19l-11-7-20-20-4-3v-2l-4-2v-2l-4-2v-2l-3-1-5-6-6-5-7-8-39-39-6-5-6-7-6-5v-2h-2v-2l-4-2-9-11-4-9v-13l4-10 6-8 7-6 5-6 5-5h2v-2l11-7 13-2 9 2 9 5 4 1 2-4 149-149-1-5-10-13-9-8-10-6-13-4-15-1-14 2-15 5-16 8-19 12-21 16-28 24-13 12-8 7-10 9-8 7-10 9-14 11-10 9-13 10-15 11-20 13-18 10-17 8-16 6-19 5-21 3h-28l-22-4-13-3-12 9-25 20-14 11-13 10-19 14-15 11-19 13-17 12-25 16-18 11-21 12-23 12-6 2-7-1-6-4-4-6v-9l7-16 9-16 11-19 15-24 18-27 9-13 10-14 14-19 2-3-25 9-30 11-46 15-37 10-27 6h-11l-5-3-5-6v-24l7-24 9-20 10-15 11-14 7-8h2l1-3 8-7 15-13 19-14 27-18 20-12 24-14 23-13 28-15 2-6 5-33 5-24 9-34 13-40 12-32 4-6 7-4 10 1 6 5 3 6v7l-7 21-5 14-10 30-8 28-8 37-2 10 17-8 18-10 34-18 28-15 24-13 45-25 23-13 24-14 4-4h2v-2l7-6 5-6 7-6 5-6h2l2-4h2l2-4h2l2-4h2l2-4h2l2-4h2l2-4 7-6 5-6 8-7 4-5v-23l3-18 7-21 12-25 13-23 22-34 11-16 7-10-12 2-8 1h-27l-15-3-13-5-13-7-10-8-11-11-7-10-9-17-5-17-2-12v-29l4-22 6-18 10-21 9-14 10-13 5-6h2l2-4 13-12 17-12 15-8 19-7 7-2h5zm10 31-14 3-16 6-15 9-14 11-10 10-11 14-7 11-8 17-4 11-4 20v24l4 18 8 16 9 11 12 9 11 5 12 3h24l16-4 15-6 15-9 11-9 9-8v-2h2l11-14 9-14 7-16 5-16 3-18v-15l-2-15-6-17-7-11-8-9-14-9-14-5-5-1zm-73 436-71 71v2l-4 2v2l-4 2v2l-4 2v2l-4 2v2h-2l-7 8-38 38v2l-4 2-7 8-8 8v2h-2l-7 8-4 4v2h-2l-7 8-8 8v2l-4 2-7 4-10-1-6-5-2-7 1-7 4-7 18-18 7-8 11-11 7-8-2-2-20 11-16 8-22 12-34 18-18 10-16 8-28 15-12 7-12 6-23 13-28 16-22 14-22 15-17 13-14 13-4 3v2l-4 2-9 11-8 11-6 10-8 21v2l7-1 26-7 45-14 28-10 37-14 44-18 8-5 11-13 13-16 9-11 9-10 8-10 10-11 7-8 5-3h8l6 3 4 5 1 3v7l-4 7-11 13-9 11-10 11-9 11-11 13-11 14-13 16-29 38-14 19-24 34-18 27-10 17 2 1 19-12 24-16 16-11 28-20 21-16 12-9 16-13 13-10 13-11 10-8 17-14 14-12 10-9 11-9 12-11 8-7 12-11 8-7 12-11 6-5v-2l4-2 10-10 8-7 17-16 25-25 4-3v-2l4-2 35-35 7-10 5-11 3-12v-26l-8-72zm41 79v14l-1 16 7-3 21-12 11-8 4-5h-28zm-203 40m-2 1 1 2 1-2zm-132 34m607 29-8 7-7 8-56 56-3 2v2h-2l3 10 17 41 12 30 11 27 4-1 16-17 32-32 2-1v-2l4-2-1-3-34-14-24-10-6-7-1-9 3-7 7-4h9l28 11 37 15 7 2 6-5 7-8 10-10 3-2-1-4-73-73zm-101 101-17 17-4 3v2h-2l3 10 20 49 6 15-1 9-6 7-5 2-8-1-6-4-7-14-11-28-7-18-3-1-2 1v2h-2v2h-2v2h-2v2l-4 2v2l-4 2v2l-4 2v2l-3 1-7 8-25 25 75 75 4-1 2-4 4-2 7-8 51-51 2-1v-2h2l1-3-6-16-15-36-20-50-2-4zm-147 104-3 3v2l-4 2v2h-2l-4 4v2l-4 2-2 3 8 9h2l2 4h2l2 4h2l2 4 92 92h2l2 4 3 1 19-19-2-5-8-7-5-6-7-6-5-6-76-76-8-7-4-5z"></path><path transform="translate(283,60)" d="m0 0h27l17 4 12 5 14 9 11 9 8 9 9 14 7 18 3 14 1 10v22l-2 19-4 22-8 32-12 36-10 28-13 33-16 39-14 34-7 14-5 4-3 1h-8l-7-4-4-6v-10l15-37 14-34 19-48 13-36 10-33 6-26 3-18 1-11v-20l-3-16-5-13-6-10-9-9-14-8-10-4-5-1h-22l-12 3-14 7-13 10-10 10-12 16-3 5 1 4 6 9 4 13v16l-3 10-5 10-24 38-8 13-11 17-12 19-7 11-11 17-35 55-16 25-11 17-16 25-21 33-8 11-10 6-5 1h-8l-9-3-9-8-4-7v-17l7-15 16-34 15-33 18-39 13-29 7-15 15-32 15-33 19-40 9-20 10-19 10-11 10-6 14-4h11l5 1 2-5 8-11 11-14 11-11 13-10 15-9 15-6zm-102 99-7 3-5 5-13 27-6 13-19 41-13 28-16 35-12 26-7 16-7 14-9 20-7 15 1 2 7-10 24-38 11-17 28-44 9-14 13-20 12-19 11-17 13-21 11-17 2-6v-9l-5-8-6-4-3-1z"></path><path transform="translate(503,551)" d="m0 0h8l6 3 6 7 1 3v7l-3 6-5 5-5 2h-8l-8-5-4-7v-8l4-8z"></path><path transform="translate(649)" d="m0 0 2 1z"></path><path transform="translate(376,589)" d="m0 0"></path></svg>