<svg xmlns="http://www.w3.org/2000/svg" viewBox="0 0 1024 1024" width="1280" height="1280"><path transform="translate(474)" d="m0 0h78v1l32 6 24 6 31 11 31 15 20 12 17 12 13 10 10 9 16 14v2h2l7 8 11 12 10 13 12 17 14 23 8 16 9 20 11 33 6 25 4 27 2 26v23l-3 34-5 27-6 24-10 28-12 26-12 21-7 11-10 14-11 14-9 10-9 11-10 11-14 19-13 21-8 16-8 17-10 30-5 22-3 20-1 14-1 151-3 20-8 16-9 10-9 7-16 7-1 6-1 22-3 11-4 9-6 10-10 10-11 7-14 6-1 1h-134l-9-4-12-6-10-9-8-9-7-14-3-10-1-9-1-21-16-7-13-11-7-10-6-13-3-20-1-152-2-21-4-22-5-20-9-25-11-24-13-22-14-19-13-15-10-11-9-11-7-8-13-18-13-21-9-16-11-25-12-36-7-34-3-24-1-22v-19l3-32 6-32 9-31 12-29 12-24 12-19 9-13 13-17 3-4h2l2-4 16-17 7-7 11-9 9-8 19-14 21-13 18-10 22-10 28-10 32-8 25-4zm35 40-30 2-20 3-25 6-27 9-22 10-20 11-14 9-16 12-11 9-16 15-8 8-7 8-13 16-10 15-11 18-8 16-8 18-10 30-5 21-4 30v48l4 28 6 26 10 30 12 26 10 17 8 12 12 16 11 13 9 10 9 11 9 10 13 18 8 13 9 16 12 25 10 28 7 27 4 25 3 24 19 1h30l1-1v-252h-20l-15-2-11-4-9-5-11-10-8-14-4-12-1-6v-12l3-14 4-10 8-11 10-9 11-6 12-3h24l13 4 12 7 6 5 9 12 5 12 2 12 1 26h61l2-31 4-13 6-11 10-11 13-8 14-4h20l13 4 11 6 10 9 7 11 4 9 2 8 1 11-2 17-5 12-7 11-10 9-14 7-13 3-24 2-1 10v241l12 1h36l3-1 5-35 5-24 8-27 8-20 12-25 9-16 10-15 12-16 8-10 9-10 7-8 9-11 11-14 12-18 12-22 10-22 10-30 6-28 3-23 1-19v-13l-2-28-4-25-6-24-7-20-6-15-10-21-13-21-13-18-12-14-15-16-12-11-15-12-17-12-21-12-27-13-33-11-29-6-25-3zm-89 358-9 2-7 6-3 9 1 9 5 8 4 3 11 2h15l3-2v-22l-3-7-5-5-9-3zm175 1-6 4-4 5-2 13v15l10 1 12-1 8-4 4-6 1-3v-12l-4-7-7-5zm-114 79v251l40 1h19l2-1v-251zm-81 292-9 1v119l4 6 8 6 3 1h211l10-4 4-5 2-5 1-9v-110zm36 174v16l4 13 9 8 6 2h113l8-3 8-7 3-9 1-17-1-3z"></path><path transform="translate(505,97)" d="m0 0h18l28 3 30 7 28 11 17 9 19 12 14 11 13 11 16 17 11 14 13 19 8 16 7 15 1 3v11l-6 9-8 5-8 1-9-4-8-9-9-17-6-12-14-20-11-12-12-12-13-10-14-9-16-9-26-10-25-6-35-3-9-3-5-5-4-6-1-9 4-9 4-5z"></path><path transform="translate(959,308)" d="m0 0h32l18 1 6 3 5 4 2 5h2v17l-5 5-5 4-5 2-6 1h-51l-9-2-6-4-5-7-1-3v-9l3-7 4-5 8-4z"></path><path transform="translate(27,308)" d="m0 0h29l22 1 10 6 5 10v8l-3 7-5 6-7 3-8 1h-50l-9-2-9-8-2-4v-14l6-8 7-4 2-1z"></path><path transform="translate(911,93)" d="m0 0 9 1 8 4 5 6 2 5v9l-4 8-11 12-26 26-9 6-3 1h-10l-6-3-5-5-4-8v-8l5-10 4-5 8-7 11-11 5-6 8-7 8-6z"></path><path transform="translate(106,93)" d="m0 0 9 1 9 5 37 37 5 8 1 3v8l-4 8-7 6-5 2h-10l-8-5-10-9-27-27-6-9-1-2v-11l5-8 6-5z"></path><path transform="translate(142,487)" d="m0 0h8l9 4 5 6 3 7v7l-5 10-6 7-7 6-6 7h-2l-2 4-6 5-5 5-8 7-8 3-10-1-6-4-5-6-2-5v-9l4-8 4-5 7-6 5-6 21-21 9-6z"></path><path transform="translate(874,487)" d="m0 0h7l10 5 39 39 5 9v9l-4 8-7 6-6 2h-8l-8-4-37-37-6-7-2-5v-9l4-8 7-6z"></path><path transform="translate(718,309)" d="m0 0h10l8 4 6 7 2 7-1 8-3 6-5 5-7 3h-10l-8-4-6-8-1-4v-8l4-9 6-5z"></path><path transform="translate(442,1023)" d="m0 0 2 1z"></path></svg>