<svg xmlns="http://www.w3.org/2000/svg" viewBox="0 0 1024 1024" width="1280" height="1280"><path transform="translate(500)" d="m0 0h23v1l21 5 13 5 17 9 25 15 28 16 27 16 26 15 48 28 29 17 26 15 22 13 26 15 75 44 8 6 4 5 1 9-5 8-8 5-8-1-20-11-22-13-24-14-53-31-58-34-26-15-22-13-26-15-22-13-26-15-22-13-24-14-14-7-14-4-8-1h-10l-17 3-12 5-23 13-27 16-26 15-29 17-26 15-22 13-26 15-22 13-26 15-22 13-19 11v1l41 9 24 6 10 4 11 8 8 9 6 12 2 6 1 7v9l-2 11-4 9-5 8-11 14-13 16-8 10-13 16-11 14-10 13-7 14-4 18v11l3 15 6 14 8 11 7 7 14 9 48 28 77 45 26 15 22 13 24 14 15 9 14 6 15 3h16l17-4 17-8 27-16 26-15 27-16 26-15 53-31 173-101 26-15 22-13 26-15 19-12 5-4 5-7 3-10v-14l-4-11-5-7-10-7-26-15-7-8-1-3v-7l3-6 4-4 5-2h6l16 8 20 12 10 8 7 7 8 13 4 10v2l2 1v34l-3 4-3 8-7 11-8 9-13 9-29 17-26 15-15 9-6 3 5 4 26 15 25 15 21 12 13 10 8 9 6 10 4 10v3h2v33h-2l-2 9-8 14-9 10-12 9-14 8-24 14-8 4v2l24 14 25 15 10 8 8 9 8 14 4 9v33l-4 9-6 11-7 9-10 9-25 15-48 28-19 11-39 23-26 15-17 10-24 14-19 11-22 13-168 98-26 15-15 7-18 5-5 1h-28l-17-4-15-6-19-10-80-47-26-15-27-16-26-15-7-6-2-4v-10l4-6 6-4h10l22 12 13 8 52 30 22 13 26 15 22 13 19 11 13 6 13 3h21l16-4 16-8 28-16 22-13 111-65 120-70 26-15 29-17 19-11 58-34 14-9 6-6 4-9 1-5v-13l-3-10-6-8-6-5-15-9-26-15-17-10-5-3-9 3-17 10-137 80-19 11-22 13-144 84-17 8-13 4-10 2-10 1h-9l-15-2-15-4-14-6-24-14-26-15-24-14-53-31-26-15-22-13-24-14-26-15-22-13-26-15-22-13-26-15-22-13-6-4-8 2-48 28-14 9-4 2-2 4-5 9-2 10 1 11 4 10 7 8 10 7 21 12 24 14 26 15 99 58 27 16 7 8 1 9-5 8-6 4-6 1-9-4-23-13-27-16-26-15-24-14-29-17-27-16-26-15-20-12-10-8-8-9-8-14-4-12v-29l5-12 8-14 10-10 10-7 22-13 21-12 3-3-26-15-15-9-11-7-12-11-7-10-5-10-3-10v-29l5-12 8-14 10-10 10-7 24-14 26-15 22-13 72-42 7-4-2-14-17-87-14-72v-11l7-8 20-12 120-70 27-16 21-12 27-16 21-12 17-10 48-28 17-8 19-5 5-1zm-314 225 2 13 16 83 7 34 1 2 4-2 12-16 11-13 10-13 9-11 8-10 13-17 3-10-2-10-3-5-6-5-8-3-61-14-15-3zm4 190-29 17-26 15-17 10-53 31-15 9-10 7-6 9-3 9v16l4 10 5 7 10 7 77 45 26 15 15 9 144 84 29 17 26 15 22 13 26 15 48 28 14 8 11 5 13 3h22l15-4 16-8 28-16 22-13 26-15 15-9 144-84 19-11 22-13 24-14 26-15 22-13 26-15 22-13 19-11 11-7 8-8 4-9 1-4v-14l-3-10-6-8-7-6-77-45-17-10-6 2-24 14-19 11-29 17-26 15-25 15-21 12-48 28-22 13-21 12-25 15-28 16-15 9-21 11-15 5-15 3h-23l-19-4-15-6-20-11-27-16-26-15-29-17-26-15-27-16-26-15-44-26-11-8-7-6-7-8-7-10-8-16-4-12-5-25z"></path><path transform="translate(865,556)" d="m0 0h8l8 4 4 7v8l-4 7-8 5-10-1-6-5-3-7 1-9 4-6z"></path><path transform="translate(655,609)" d="m0 0h8l8 4 4 6v10l-4 6-5 4-9 1-7-3-5-6-1-9 3-7 6-5z"></path><path transform="translate(876,480)" d="m0 0h11l6 4 4 7v8l-4 7h-2v2l-8 3-9-2-5-5-3-6 1-10 5-6z"></path><path transform="translate(650,681)" d="m0 0h11l6 4 3 3 2 9-3 8-7 6-7 1-8-3-5-5-2-5 1-8 4-7z"></path><path transform="translate(795,597)" d="m0 0 9 1 6 4 3 5 1 2v7l-4 7-4 4-3 1h-8l-5-2-6-6-1-3v-8l3-6 6-5z"></path><path transform="translate(507,760)" d="m0 0h9l8 5 3 5 1 7-4 8-6 5-9 1-6-3-5-5-2-6 1-7 4-6z"></path><path transform="translate(581,722)" d="m0 0 10 1 7 6 2 4v9l-4 6-5 4-9 1-7-3-5-6-1-3v-7l5-8 4-3z"></path><path transform="translate(582,652)" d="m0 0 10 1 5 3 4 7v9l-4 6-5 4-2 1h-8l-6-3-4-4-2-7 1-6 3-6 5-4z"></path><path transform="translate(802,523)" d="m0 0h10l8 5 3 5v9l-5 8-5 3-6 1-9-3-4-5-2-4v-7l4-8z"></path><path transform="translate(723,639)" d="m0 0h8l8 5 3 4 1 8-3 7-5 5-5 2-9-1-7-6-2-3v-10l4-7z"></path><path transform="translate(938,514)" d="m0 0 9 1 5 3 4 6v11l-7 8-5 2-10-1-6-5-3-9 1-6 4-6 4-3z"></path><path transform="translate(360,609)" d="m0 0h8l8 5 3 5 1 6-2 7-8 7-8 1-8-3-4-5-2-9 3-8 5-4z"></path><path transform="translate(223,597)" d="m0 0 8 1 6 4 3 4 1 10-4 7-5 4-3 1h-7l-8-4-3-4-1-4v-8l4-6 3-3z"></path><path transform="translate(729,566)" d="m0 0h8l7 3 4 5 1 3v8l-4 7-3 3-10 2-8-3-5-6-1-9 3-7 5-5z"></path><path transform="translate(436,722)" d="m0 0 9 1 6 4 3 5 1 8-4 8-5 4-10 1-8-4-4-7v-9l4-7z"></path><path transform="translate(137,480)" d="m0 0h10l7 4 3 5 1 8-3 7-6 5-5 2-7-1-6-4-4-7v-8l3-6 5-4z"></path><path transform="translate(293,639)" d="m0 0h7l8 4 4 7v9l-6 8-7 3-8-1-6-4-4-8 1-9 6-7z"></path><path transform="translate(434,652)" d="m0 0h7l8 4 4 7v10l-7 8-4 2h-8l-7-4-4-7v-9l4-7z"></path><path transform="translate(150,556)" d="m0 0h8l6 3 4 4 2 10-3 7-6 5-4 2-9-1-7-6-2-5v-8l4-7z"></path><path transform="translate(511,695)" d="m0 0 9 2 6 7 1 2v10l-4 6-7 4h-9l-6-4-3-4-2-5 1-8 4-6 5-3z"></path><path transform="translate(363,681)" d="m0 0h10l6 4 4 6v10l-4 6-6 4h-10l-6-4-3-3-2-10 4-9z"></path><path transform="translate(211,523)" d="m0 0h10l6 4 4 5 1 8-4 8-5 4-2 1h-10l-6-4-3-4-1-3v-9l4-6z"></path><path transform="translate(78,514)" d="m0 0h9l6 4 4 6 1 7-4 8-4 4-3 1h-10l-6-4-4-6v-10l4-6 4-3z"></path><path transform="translate(286,566)" d="m0 0h8l6 3 4 5 2 8-3 8-5 5-3 1h-10l-5-3-4-5-1-2v-10l4-6 4-3z"></path><path transform="translate(1023,719)" d="m0 0"></path><path transform="translate(1023,547)" d="m0 0"></path></svg>