<svg xmlns="http://www.w3.org/2000/svg" viewBox="0 0 1024 1024" width="1280" height="1280"><path transform="translate(573)" d="m0 0h16l7 8 2 6 1 18 12 4 10 7 6 7 4 8 1 4v91h33v-92l4-10 9-10 10-6 10-3 1-20 4-6 6-6h16v2l4 2 4 5 1 3 1 12-1 9 11 2 11 6 7 8 4 8 1 4v92h76l21 3 18 6 17 9 13 10 10 9 9 10 10 16 8 18 5 20 27 2 13 4 11 7 9 10 7 14v2l2 1v232h-2l-3 9-7 11-9 8-14 7-9 2-23 1-1 412-2 12-4 9-6 9-8 8-10 6-10 4h-876l-16-7-10-8-8-11-4-8-2-5v-199l5-12 6-11 6-8 8-7 10-7 12-5 15-3 539-1 8-4 3-5 1-8v-273l-2-10-4-8-5-6-12-6-4-1h-215l-9 2-9 6-6 7-4 11-1 28-3 16-5 12-7 11-10 10-11 7-9 4-9 3-14 2v14l-2 15-4 11-9 12-8 7-12 6-9 2-11 1h-31v89l-3 6-5 5-7 2-9-1-5-3-5-6-1-3v-89h-37l-14-3-12-6-9-8-7-10-4-9-2-7-1-26h-10l-16-5-10-5-11-9-8-9-8-14-4-12v-223l9-27 9-17 10-13 9-10 15-12 16-9 15-6 18-4 8-1h10v-24l3-11 5-10 7-9 11-8 12-5 5-1h17l13 4 11 7 9 9 6 10 3 9 2 15v10l-1 4h306v-88l2-8 4-8 6-7 9-6 10-3h3v-18l3-8zm-8 68-1 1-1 84h33l1-12v-72l-8-1zm136 0-1 1v84h33v-84l-17-1zm-536 52-7 4-3 6-1 4v19h33v-20l-3-7-6-5-3-1zm-53 68-17 3-15 6-12 8-10 9-7 8-7 11-6 15-2 6-1 7v207l4 10 7 8 5 4 6 3 5 1h217l9-3 10-7 6-9 3-16v-15l2-17 6-15 7-11v-2h2l6-7 10-7 13-6 14-3h220l15 3 16 8 9 7 9 10 8 16 3 10 1 9v276l-1 13-5 13-4 6-8 9-9 6-12 4-7 1-536 1-10 2-10 6-6 7-4 8-1 4v126h886v-656l-3-16-6-15-9-14-10-11-13-9-14-7-15-4-7-1zm845 102-1 1v238h13l11-2 8-7 1-5v-212l-4-8-6-4-13-1zm-852 239-2 1v20l3 6 6 5 10 2h78l27-1 7-4 4-8 1-20-2-1zm-70 427-1 4v12l2 8 6 7 5 2h862l7-4v-2h2l3-9v-18z"></path><path transform="translate(166,221)" d="m0 0h8l12 2 14 7 10 9 6 9 5 12 1 5v151l-3 12-6 11-9 10-9 6-9 4-10 2h-13l-13-4-9-5-10-9-7-11-4-11-1-5v-150l2-9 7-14 9-10 11-7 11-4zm2 35-7 3-5 5-2 5v54l2 1h29l2-1v-55l-4-6-6-5zm18 102-32 1v54l3 7 5 4 6 2 9-1 7-5 3-8v-54z"></path><path transform="translate(771,239)" d="m0 0h28l16 4 17 9 10 8 5 5 9 10 9 17 5 17 1 7v15l-3 16-5 13-9 16-11 12-14 10-15 7-15 4-6 1h-16l-15-3-14-5-12-7-12-11-7-7-7-11-5-10-4-12-2-12v-15l3-16 5-13 8-14 11-13 13-10 14-7 13-4zm4 35-10 3-12 7-8 8-8 14-3 13v9l3 14 7 13 10 10 16 8 10 2h9l13-3 12-6 12-11 7-14 2-7v-20l-5-14-7-10-9-8-12-6-7-2z"></path><path transform="translate(779,443)" d="m0 0h13l17 3 15 6 11 7 13 11 10 13 7 14 5 17 1 7v15l-3 16-6 15-7 12-7 9-8 7-13 9-14 6-15 4-7 1h-11l-14-2-15-5-13-7-9-7-11-11-10-15-5-12-3-12-1-8v-13l3-17 5-14 8-13 6-8h2l2-4 12-10 16-8 12-4zm1 35-13 3-10 5-10 9-4 5-7 14-2 11v8l2 11 7 14 9 10 11 7 12 4h19l13-4 11-7 7-7 7-12 3-10v-20l-4-12-6-10-9-9-16-8-10-2z"></path><path transform="translate(712,733)" d="m0 0h143l9 3 5 6 2 6-1 9-4 6-4 4-4 1h-146l-6-3-5-6-2-6 1-9 4-6 5-4z"></path><path transform="translate(727,1)" d="m0 0"></path><path transform="translate(706,1)" d="m0 0"></path><path transform="translate(707)" d="m0 0"></path></svg>