<svg xmlns="http://www.w3.org/2000/svg" viewBox="0 0 1024 1024" width="1280" height="1280"><path transform="translate(382,613)" d="m0 0h26l18 4 29 10 30 11 43 14 36 10 27 6 14 6 12 9 8 9 7 12 4 13 1 15-3 16-3 8 16-7 26-15 27-16 45-26 27-16 42-24 17-9 20-8 19-5 6-1h26l12 3 14 7 10 9 7 8 7 14 3 10 1 17-2 14-4 11-6 11-9 10-8 6-47 29-23 14-24 15-47 29-23 14-24 15-20 12-19 12-28 17-21 13-15 9-16 8-13 5-18 4-7 1h-23l-25-5-41-11-38-10-112-30-8-2-6 1-11 7-9 5 6 11 8 16 3 10v9l-3 11-6 10-7 7-15 9-27 15-16 8-5 1h-13l-10-3-9-6-7-7-10-17-13-23-14-25-12-21-14-25-24-42-14-25-15-26-15-27-7-14-2-7v-11l4-13 6-9h2v-2l10-7 28-16 18-10 9-3h16l11 4 6 4 5 5 7 9 8 15 12-6 15-9 26-15 24-14 52-30 21-10 19-6zm4 33-15 3-20 8-28 15-27 16-26 15-23 13-15 9-17 10 2 5 13 24 9 16 12 21 13 23 16 28 10 18 5 1 24-14 8-4 9 1 35 9 44 12 45 12 78 21 18 4 7 1h19l17-4 12-5 18-10 24-15 26-16 18-11 42-26 44-27 24-15 26-16 23-14 21-13 26-16 10-7 6-7 3-8v-18l-4-10-7-8-8-4-5-1h-18l-17 4-16 6-19 10-21 12-27 16-21 12-72 42-21 12-16 8-15 5-16 3-18 1-25-3-30-6-35-9-53-15-9-4-4-6-1-3v-7l4-7 5-4 6-1 21 5 62 17 28 6h10l9-3 6-4 5-6 3-7 1-9-2-9-3-6-6-7-10-5-38-9-41-12-44-15-42-15-13-3zm-232 55-11 5-27 15-14 9-1 5 8 16 13 23 9 16 16 28 6 10 6 11 15 27 9 16 16 28 14 25 21 36 3 4 9-1 28-16 17-10 2-3-1-6-12-22-13-23-16-28-10-18-16-28-14-25-16-28-13-23-12-21-11-19z"></path><path transform="translate(621,15)" d="m0 0 17 2 13 5 15 10 13 10 14 9 9 3 41 3 16 4 12 6 11 9 9 12 6 14 10 40 4 8 9 10 17 16 9 9 7 11 5 12 2 8v18l-3 11-5 13-10 19-6 14v22l3 24v15l-4 16-7 13-9 10-10 8-10 5 1 5 9 20 18 42 13 30 7 17v9l-6 9-6 3h-8l-60-12h-5l-8 14-12 19-14 22-7 6-3 1h-9l-5-3-5-6-11-24-15-35-16-38-4-3-26-7h-10l-14 3-2 6-14 30-17 36-11 24-9 20-8 15-4 4-5 2h-8l-6-3-6-7-14-24-12-21-5-9-10 1-51 9h-13l-6-4-4-6-1-9 9-21 13-27 11-24 14-30 13-28-2-2-16-7-13-9-9-10-6-10-5-15-1-7v-10l4-36v-9l-5-15-16-32-4-15v-15l3-13 7-14 9-11 9-9 8-7 12-12 5-10 5-18 5-21 5-13 8-11 4-5h2v-2l14-9 10-4 9-2 42-3 10-3 10-6 12-9 15-11 12-6 11-3zm-3 33-11 4-19 14-17 12-11 5-10 3-33 3-19 2-9 5-7 8-5 15-7 28-5 13-5 9-4 5v2h-2l-7 8-3 2v2l-4 2-18 18-4 9-1 4v8l4 12 8 16 9 19 4 15v17l-4 34 1 11 5 10 5 5 8 5 29 13 12 6 11 9 8 10 20 30 7 7 8 4 5 1h9l38-11 12-2h11l20 4 31 9h10l9-3 8-6 8-11 14-21 9-12 2-1v-2l4-2 11-7 36-16 9-6 6-9 2-8-1-18-3-29 1-14 5-16 10-21 7-14 2-6v-12l-4-10-10-11-8-7-17-17-9-14-4-11-5-19-6-22-5-9-8-6-10-3-40-3-15-3-16-8-19-14-14-10-7-3-5-1zm148 369v2l-4 1-9 10-7 11-8 12-8 11-2 4-4 2-8 6-10 5-11 3-1 2 20 46 2 4 3-1 12-20 12-19 6-4h11l42 8 1-2-10-22-11-26-13-30zm-281 9-7 17-17 36-13 28-6 14 10-1 34-6 10 1 5 3 11 18 12 21 2 3 3-1 12-26 14-30 7-17-18-3-12-5-11-7-7-7-25-37z"></path><path transform="translate(621,103)" d="m0 0 26 2 17 4 21 8 16 9 11 8 14 12 11 12 11 16 6 10 9 22 4 16 2 15v27l-3 19-4 15-9 21-6 10-10 14-12 13-7 7-18 13-17 9-19 7-18 4-16 2h-18l-21-3-20-6-20-9-14-9-10-8-12-11-7-8-10-14-8-14-7-16-4-13-3-15-1-9v-24l3-20 5-17 7-17 8-14 12-16 7-8 8-7 9-8 16-10 16-8 18-6 13-3zm-14 34-19 4-19 8-16 10-15 14-10 12-10 18-6 16-3 14-1 7v22l4 20 6 16 6 12 10 14 15 15 13 9 17 9 20 6 16 2h15l19-3 18-6 17-9 12-9 10-9v-2h2l10-13 10-19 5-16 3-15v-26l-4-20-6-15-7-14-10-13-10-10-8-7-14-9-16-7-13-4-11-2z"></path><path transform="translate(688,189)" d="m0 0h9l6 3 5 6 1 3v8l-3 6-4 5-8 7-24 22-8 7-14 13-8 7-4 2v2l-8 7-12 11-10 9-6 4-3 1h-9l-7-4-42-42-4-8 1-9 4-6 6-4h11l6 4 5 4 6 7 6 5 6 7 8 6 8-7 16-15 8-7 14-13h2v-2l8-7 12-11 8-7 12-11z"></path><path transform="translate(140,732)" d="m0 0h11l6 4 4 5 1 2v10l-5 8-5 3-8 1-8-3-6-7-1-10 3-7 6-5z"></path></svg>