<svg xmlns="http://www.w3.org/2000/svg" xmlns:xlink="http://www.w3.org/1999/xlink" xmlns:svgjs="http://svgjs.dev/svgjs" viewBox="0 0 800 800"><defs><linearGradient gradientTransform="rotate(270)" x1="50%" y1="0%" x2="50%" y2="100%" id="sssquiggly-grad"><stop stop-color="hsl(206, 75%, 49%)" stop-opacity="1" offset="0%"></stop><stop stop-color="hsl(331, 90%, 56%)" stop-opacity="1" offset="100%"></stop></linearGradient></defs><g stroke-width="2" stroke="hsla(0, 0%, 0%, 1.00)" fill="none" stroke-linecap="round" transform="matrix(1,0,0,1,0,58.00252151489258)"><path d="M10,10C21.805555555555557,14.791666666666668,40.97222222222223,40.708333333333336,66.66666666666667,33C92.36111111111111,25.291666666666664,105.55555555555557,-25.541666666666668,133.33333333333334,-27C161.11111111111111,-28.458333333333332,172.22222222222223,25.375,200,26C227.77777777777777,26.625,238.8888888888889,-24.416666666666668,266.6666666666667,-24C294.44444444444446,-23.583333333333332,305.5555555555556,25.083333333333332,333.33333333333337,28C361.11111111111114,30.916666666666668,372.22222222222223,-13.75,400,-10C427.77777777777777,-6.25,438.8888888888889,44.75,466.6666666666667,46C494.44444444444446,47.25,505.5555555555556,-0.666666666666667,533.3333333333334,-4C561.1111111111111,-7.333333333333333,572.2222222222222,30.416666666666668,600,30C627.7777777777778,29.583333333333332,638.8888888888889,-7.666666666666666,666.6666666666667,-6C694.4444444444446,-4.333333333333334,707.6388888888889,34.666666666666664,733.3333333333334,38C759.0277777777778,41.333333333333336,778.1944444444445,15.833333333333334,790,10"></path><path d="M10,10C21.805555555555557,14.791666666666668,40.97222222222223,40.708333333333336,66.66666666666667,33C92.36111111111111,25.291666666666664,105.55555555555557,-25.541666666666668,133.33333333333334,-27C161.11111111111111,-28.458333333333332,172.22222222222223,25.375,200,26C227.77777777777777,26.625,238.8888888888889,-24.416666666666668,266.6666666666667,-24C294.44444444444446,-23.583333333333332,305.5555555555556,25.083333333333332,333.33333333333337,28C361.11111111111114,30.916666666666668,372.22222222222223,-13.75,400,-10C427.77777777777777,-6.25,438.8888888888889,44.75,466.6666666666667,46C494.44444444444446,47.25,505.5555555555556,-0.666666666666667,533.3333333333334,-4C561.1111111111111,-7.333333333333333,572.2222222222222,30.416666666666668,600,30C627.7777777777778,29.583333333333332,638.8888888888889,-7.666666666666666,666.6666666666667,-6C694.4444444444446,-4.333333333333334,707.6388888888889,34.666666666666664,733.3333333333334,38C759.0277777777778,41.333333333333336,778.1944444444445,15.833333333333334,790,10" transform="matrix(1,0,0,1,0,665)"></path><path d="M10,10C21.805555555555557,14.791666666666668,40.97222222222223,40.708333333333336,66.66666666666667,33C92.36111111111111,25.291666666666664,105.55555555555557,-25.541666666666668,133.33333333333334,-27C161.11111111111111,-28.458333333333332,172.22222222222223,25.375,200,26C227.77777777777777,26.625,238.8888888888889,-24.416666666666668,266.6666666666667,-24C294.44444444444446,-23.583333333333332,305.5555555555556,25.083333333333332,333.33333333333337,28C361.11111111111114,30.916666666666668,372.22222222222223,-13.75,400,-10C427.77777777777777,-6.25,438.8888888888889,44.75,466.6666666666667,46C494.44444444444446,47.25,505.5555555555556,-0.666666666666667,533.3333333333334,-4C561.1111111111111,-7.333333333333333,572.2222222222222,30.416666666666668,600,30C627.7777777777778,29.583333333333332,638.8888888888889,-7.666666666666666,666.6666666666667,-6C694.4444444444446,-4.333333333333334,707.6388888888889,34.666666666666664,733.3333333333334,38C759.0277777777778,41.333333333333336,778.1944444444445,15.833333333333334,790,10" transform="matrix(1,0,0,1,0,630)"></path><path d="M10,10C21.805555555555557,14.791666666666668,40.97222222222223,40.708333333333336,66.66666666666667,33C92.36111111111111,25.291666666666664,105.55555555555557,-25.541666666666668,133.33333333333334,-27C161.11111111111111,-28.458333333333332,172.22222222222223,25.375,200,26C227.77777777777777,26.625,238.8888888888889,-24.416666666666668,266.6666666666667,-24C294.44444444444446,-23.583333333333332,305.5555555555556,25.083333333333332,333.33333333333337,28C361.11111111111114,30.916666666666668,372.22222222222223,-13.75,400,-10C427.77777777777777,-6.25,438.8888888888889,44.75,466.6666666666667,46C494.44444444444446,47.25,505.5555555555556,-0.666666666666667,533.3333333333334,-4C561.1111111111111,-7.333333333333333,572.2222222222222,30.416666666666668,600,30C627.7777777777778,29.583333333333332,638.8888888888889,-7.666666666666666,666.6666666666667,-6C694.4444444444446,-4.333333333333334,707.6388888888889,34.666666666666664,733.3333333333334,38C759.0277777777778,41.333333333333336,778.1944444444445,15.833333333333334,790,10" transform="matrix(1,0,0,1,0,595)"></path><path d="M10,10C21.805555555555557,14.791666666666668,40.97222222222223,40.708333333333336,66.66666666666667,33C92.36111111111111,25.291666666666664,105.55555555555557,-25.541666666666668,133.33333333333334,-27C161.11111111111111,-28.458333333333332,172.22222222222223,25.375,200,26C227.77777777777777,26.625,238.8888888888889,-24.416666666666668,266.6666666666667,-24C294.44444444444446,-23.583333333333332,305.5555555555556,25.083333333333332,333.33333333333337,28C361.11111111111114,30.916666666666668,372.22222222222223,-13.75,400,-10C427.77777777777777,-6.25,438.8888888888889,44.75,466.6666666666667,46C494.44444444444446,47.25,505.5555555555556,-0.666666666666667,533.3333333333334,-4C561.1111111111111,-7.333333333333333,572.2222222222222,30.416666666666668,600,30C627.7777777777778,29.583333333333332,638.8888888888889,-7.666666666666666,666.6666666666667,-6C694.4444444444446,-4.333333333333334,707.6388888888889,34.666666666666664,733.3333333333334,38C759.0277777777778,41.333333333333336,778.1944444444445,15.833333333333334,790,10" transform="matrix(1,0,0,1,0,560)"></path><path d="M10,10C21.805555555555557,14.791666666666668,40.97222222222223,40.708333333333336,66.66666666666667,33C92.36111111111111,25.291666666666664,105.55555555555557,-25.541666666666668,133.33333333333334,-27C161.11111111111111,-28.458333333333332,172.22222222222223,25.375,200,26C227.77777777777777,26.625,238.8888888888889,-24.416666666666668,266.6666666666667,-24C294.44444444444446,-23.583333333333332,305.5555555555556,25.083333333333332,333.33333333333337,28C361.11111111111114,30.916666666666668,372.22222222222223,-13.75,400,-10C427.77777777777777,-6.25,438.8888888888889,44.75,466.6666666666667,46C494.44444444444446,47.25,505.5555555555556,-0.666666666666667,533.3333333333334,-4C561.1111111111111,-7.333333333333333,572.2222222222222,30.416666666666668,600,30C627.7777777777778,29.583333333333332,638.8888888888889,-7.666666666666666,666.6666666666667,-6C694.4444444444446,-4.333333333333334,707.6388888888889,34.666666666666664,733.3333333333334,38C759.0277777777778,41.333333333333336,778.1944444444445,15.833333333333334,790,10" transform="matrix(1,0,0,1,0,525)"></path><path d="M10,10C21.805555555555557,14.791666666666668,40.97222222222223,40.708333333333336,66.66666666666667,33C92.36111111111111,25.291666666666664,105.55555555555557,-25.541666666666668,133.33333333333334,-27C161.11111111111111,-28.458333333333332,172.22222222222223,25.375,200,26C227.77777777777777,26.625,238.8888888888889,-24.416666666666668,266.6666666666667,-24C294.44444444444446,-23.583333333333332,305.5555555555556,25.083333333333332,333.33333333333337,28C361.11111111111114,30.916666666666668,372.22222222222223,-13.75,400,-10C427.77777777777777,-6.25,438.8888888888889,44.75,466.6666666666667,46C494.44444444444446,47.25,505.5555555555556,-0.666666666666667,533.3333333333334,-4C561.1111111111111,-7.333333333333333,572.2222222222222,30.416666666666668,600,30C627.7777777777778,29.583333333333332,638.8888888888889,-7.666666666666666,666.6666666666667,-6C694.4444444444446,-4.333333333333334,707.6388888888889,34.666666666666664,733.3333333333334,38C759.0277777777778,41.333333333333336,778.1944444444445,15.833333333333334,790,10" transform="matrix(1,0,0,1,0,490)"></path><path d="M10,10C21.805555555555557,14.791666666666668,40.97222222222223,40.708333333333336,66.66666666666667,33C92.36111111111111,25.291666666666664,105.55555555555557,-25.541666666666668,133.33333333333334,-27C161.11111111111111,-28.458333333333332,172.22222222222223,25.375,200,26C227.77777777777777,26.625,238.8888888888889,-24.416666666666668,266.6666666666667,-24C294.44444444444446,-23.583333333333332,305.5555555555556,25.083333333333332,333.33333333333337,28C361.11111111111114,30.916666666666668,372.22222222222223,-13.75,400,-10C427.77777777777777,-6.25,438.8888888888889,44.75,466.6666666666667,46C494.44444444444446,47.25,505.5555555555556,-0.666666666666667,533.3333333333334,-4C561.1111111111111,-7.333333333333333,572.2222222222222,30.416666666666668,600,30C627.7777777777778,29.583333333333332,638.8888888888889,-7.666666666666666,666.6666666666667,-6C694.4444444444446,-4.333333333333334,707.6388888888889,34.666666666666664,733.3333333333334,38C759.0277777777778,41.333333333333336,778.1944444444445,15.833333333333334,790,10" transform="matrix(1,0,0,1,0,455)"></path><path d="M10,10C21.805555555555557,14.791666666666668,40.97222222222223,40.708333333333336,66.66666666666667,33C92.36111111111111,25.291666666666664,105.55555555555557,-25.541666666666668,133.33333333333334,-27C161.11111111111111,-28.458333333333332,172.22222222222223,25.375,200,26C227.77777777777777,26.625,238.8888888888889,-24.416666666666668,266.6666666666667,-24C294.44444444444446,-23.583333333333332,305.5555555555556,25.083333333333332,333.33333333333337,28C361.11111111111114,30.916666666666668,372.22222222222223,-13.75,400,-10C427.77777777777777,-6.25,438.8888888888889,44.75,466.6666666666667,46C494.44444444444446,47.25,505.5555555555556,-0.666666666666667,533.3333333333334,-4C561.1111111111111,-7.333333333333333,572.2222222222222,30.416666666666668,600,30C627.7777777777778,29.583333333333332,638.8888888888889,-7.666666666666666,666.6666666666667,-6C694.4444444444446,-4.333333333333334,707.6388888888889,34.666666666666664,733.3333333333334,38C759.0277777777778,41.333333333333336,778.1944444444445,15.833333333333334,790,10" transform="matrix(1,0,0,1,0,420)"></path><path d="M10,10C21.805555555555557,14.791666666666668,40.97222222222223,40.708333333333336,66.66666666666667,33C92.36111111111111,25.291666666666664,105.55555555555557,-25.541666666666668,133.33333333333334,-27C161.11111111111111,-28.458333333333332,172.22222222222223,25.375,200,26C227.77777777777777,26.625,238.8888888888889,-24.416666666666668,266.6666666666667,-24C294.44444444444446,-23.583333333333332,305.5555555555556,25.083333333333332,333.33333333333337,28C361.11111111111114,30.916666666666668,372.22222222222223,-13.75,400,-10C427.77777777777777,-6.25,438.8888888888889,44.75,466.6666666666667,46C494.44444444444446,47.25,505.5555555555556,-0.666666666666667,533.3333333333334,-4C561.1111111111111,-7.333333333333333,572.2222222222222,30.416666666666668,600,30C627.7777777777778,29.583333333333332,638.8888888888889,-7.666666666666666,666.6666666666667,-6C694.4444444444446,-4.333333333333334,707.6388888888889,34.666666666666664,733.3333333333334,38C759.0277777777778,41.333333333333336,778.1944444444445,15.833333333333334,790,10" transform="matrix(1,0,0,1,0,385)"></path><path d="M10,10C21.805555555555557,14.791666666666668,40.97222222222223,40.708333333333336,66.66666666666667,33C92.36111111111111,25.291666666666664,105.55555555555557,-25.541666666666668,133.33333333333334,-27C161.11111111111111,-28.458333333333332,172.22222222222223,25.375,200,26C227.77777777777777,26.625,238.8888888888889,-24.416666666666668,266.6666666666667,-24C294.44444444444446,-23.583333333333332,305.5555555555556,25.083333333333332,333.33333333333337,28C361.11111111111114,30.916666666666668,372.22222222222223,-13.75,400,-10C427.77777777777777,-6.25,438.8888888888889,44.75,466.6666666666667,46C494.44444444444446,47.25,505.5555555555556,-0.666666666666667,533.3333333333334,-4C561.1111111111111,-7.333333333333333,572.2222222222222,30.416666666666668,600,30C627.7777777777778,29.583333333333332,638.8888888888889,-7.666666666666666,666.6666666666667,-6C694.4444444444446,-4.333333333333334,707.6388888888889,34.666666666666664,733.3333333333334,38C759.0277777777778,41.333333333333336,778.1944444444445,15.833333333333334,790,10" transform="matrix(1,0,0,1,0,350)"></path><path d="M10,10C21.805555555555557,14.791666666666668,40.97222222222223,40.708333333333336,66.66666666666667,33C92.36111111111111,25.291666666666664,105.55555555555557,-25.541666666666668,133.33333333333334,-27C161.11111111111111,-28.458333333333332,172.22222222222223,25.375,200,26C227.77777777777777,26.625,238.8888888888889,-24.416666666666668,266.6666666666667,-24C294.44444444444446,-23.583333333333332,305.5555555555556,25.083333333333332,333.33333333333337,28C361.11111111111114,30.916666666666668,372.22222222222223,-13.75,400,-10C427.77777777777777,-6.25,438.8888888888889,44.75,466.6666666666667,46C494.44444444444446,47.25,505.5555555555556,-0.666666666666667,533.3333333333334,-4C561.1111111111111,-7.333333333333333,572.2222222222222,30.416666666666668,600,30C627.7777777777778,29.583333333333332,638.8888888888889,-7.666666666666666,666.6666666666667,-6C694.4444444444446,-4.333333333333334,707.6388888888889,34.666666666666664,733.3333333333334,38C759.0277777777778,41.333333333333336,778.1944444444445,15.833333333333334,790,10" transform="matrix(1,0,0,1,0,315)"></path><path d="M10,10C21.805555555555557,14.791666666666668,40.97222222222223,40.708333333333336,66.66666666666667,33C92.36111111111111,25.291666666666664,105.55555555555557,-25.541666666666668,133.33333333333334,-27C161.11111111111111,-28.458333333333332,172.22222222222223,25.375,200,26C227.77777777777777,26.625,238.8888888888889,-24.416666666666668,266.6666666666667,-24C294.44444444444446,-23.583333333333332,305.5555555555556,25.083333333333332,333.33333333333337,28C361.11111111111114,30.916666666666668,372.22222222222223,-13.75,400,-10C427.77777777777777,-6.25,438.8888888888889,44.75,466.6666666666667,46C494.44444444444446,47.25,505.5555555555556,-0.666666666666667,533.3333333333334,-4C561.1111111111111,-7.333333333333333,572.2222222222222,30.416666666666668,600,30C627.7777777777778,29.583333333333332,638.8888888888889,-7.666666666666666,666.6666666666667,-6C694.4444444444446,-4.333333333333334,707.6388888888889,34.666666666666664,733.3333333333334,38C759.0277777777778,41.333333333333336,778.1944444444445,15.833333333333334,790,10" transform="matrix(1,0,0,1,0,280)"></path><path d="M10,10C21.805555555555557,14.791666666666668,40.97222222222223,40.708333333333336,66.66666666666667,33C92.36111111111111,25.291666666666664,105.55555555555557,-25.541666666666668,133.33333333333334,-27C161.11111111111111,-28.458333333333332,172.22222222222223,25.375,200,26C227.77777777777777,26.625,238.8888888888889,-24.416666666666668,266.6666666666667,-24C294.44444444444446,-23.583333333333332,305.5555555555556,25.083333333333332,333.33333333333337,28C361.11111111111114,30.916666666666668,372.22222222222223,-13.75,400,-10C427.77777777777777,-6.25,438.8888888888889,44.75,466.6666666666667,46C494.44444444444446,47.25,505.5555555555556,-0.666666666666667,533.3333333333334,-4C561.1111111111111,-7.333333333333333,572.2222222222222,30.416666666666668,600,30C627.7777777777778,29.583333333333332,638.8888888888889,-7.666666666666666,666.6666666666667,-6C694.4444444444446,-4.333333333333334,707.6388888888889,34.666666666666664,733.3333333333334,38C759.0277777777778,41.333333333333336,778.1944444444445,15.833333333333334,790,10" transform="matrix(1,0,0,1,0,245)"></path><path d="M10,10C21.805555555555557,14.791666666666668,40.97222222222223,40.708333333333336,66.66666666666667,33C92.36111111111111,25.291666666666664,105.55555555555557,-25.541666666666668,133.33333333333334,-27C161.11111111111111,-28.458333333333332,172.22222222222223,25.375,200,26C227.77777777777777,26.625,238.8888888888889,-24.416666666666668,266.6666666666667,-24C294.44444444444446,-23.583333333333332,305.5555555555556,25.083333333333332,333.33333333333337,28C361.11111111111114,30.916666666666668,372.22222222222223,-13.75,400,-10C427.77777777777777,-6.25,438.8888888888889,44.75,466.6666666666667,46C494.44444444444446,47.25,505.5555555555556,-0.666666666666667,533.3333333333334,-4C561.1111111111111,-7.333333333333333,572.2222222222222,30.416666666666668,600,30C627.7777777777778,29.583333333333332,638.8888888888889,-7.666666666666666,666.6666666666667,-6C694.4444444444446,-4.333333333333334,707.6388888888889,34.666666666666664,733.3333333333334,38C759.0277777777778,41.333333333333336,778.1944444444445,15.833333333333334,790,10" transform="matrix(1,0,0,1,0,210)"></path><path d="M10,10C21.805555555555557,14.791666666666668,40.97222222222223,40.708333333333336,66.66666666666667,33C92.36111111111111,25.291666666666664,105.55555555555557,-25.541666666666668,133.33333333333334,-27C161.11111111111111,-28.458333333333332,172.22222222222223,25.375,200,26C227.77777777777777,26.625,238.8888888888889,-24.416666666666668,266.6666666666667,-24C294.44444444444446,-23.583333333333332,305.5555555555556,25.083333333333332,333.33333333333337,28C361.11111111111114,30.916666666666668,372.22222222222223,-13.75,400,-10C427.77777777777777,-6.25,438.8888888888889,44.75,466.6666666666667,46C494.44444444444446,47.25,505.5555555555556,-0.666666666666667,533.3333333333334,-4C561.1111111111111,-7.333333333333333,572.2222222222222,30.416666666666668,600,30C627.7777777777778,29.583333333333332,638.8888888888889,-7.666666666666666,666.6666666666667,-6C694.4444444444446,-4.333333333333334,707.6388888888889,34.666666666666664,733.3333333333334,38C759.0277777777778,41.333333333333336,778.1944444444445,15.833333333333334,790,10" transform="matrix(1,0,0,1,0,175)"></path><path d="M10,10C21.805555555555557,14.791666666666668,40.97222222222223,40.708333333333336,66.66666666666667,33C92.36111111111111,25.291666666666664,105.55555555555557,-25.541666666666668,133.33333333333334,-27C161.11111111111111,-28.458333333333332,172.22222222222223,25.375,200,26C227.77777777777777,26.625,238.8888888888889,-24.416666666666668,266.6666666666667,-24C294.44444444444446,-23.583333333333332,305.5555555555556,25.083333333333332,333.33333333333337,28C361.11111111111114,30.916666666666668,372.22222222222223,-13.75,400,-10C427.77777777777777,-6.25,438.8888888888889,44.75,466.6666666666667,46C494.44444444444446,47.25,505.5555555555556,-0.666666666666667,533.3333333333334,-4C561.1111111111111,-7.333333333333333,572.2222222222222,30.416666666666668,600,30C627.7777777777778,29.583333333333332,638.8888888888889,-7.666666666666666,666.6666666666667,-6C694.4444444444446,-4.333333333333334,707.6388888888889,34.666666666666664,733.3333333333334,38C759.0277777777778,41.333333333333336,778.1944444444445,15.833333333333334,790,10" transform="matrix(1,0,0,1,0,140)"></path><path d="M10,10C21.805555555555557,14.791666666666668,40.97222222222223,40.708333333333336,66.66666666666667,33C92.36111111111111,25.291666666666664,105.55555555555557,-25.541666666666668,133.33333333333334,-27C161.11111111111111,-28.458333333333332,172.22222222222223,25.375,200,26C227.77777777777777,26.625,238.8888888888889,-24.416666666666668,266.6666666666667,-24C294.44444444444446,-23.583333333333332,305.5555555555556,25.083333333333332,333.33333333333337,28C361.11111111111114,30.916666666666668,372.22222222222223,-13.75,400,-10C427.77777777777777,-6.25,438.8888888888889,44.75,466.6666666666667,46C494.44444444444446,47.25,505.5555555555556,-0.666666666666667,533.3333333333334,-4C561.1111111111111,-7.333333333333333,572.2222222222222,30.416666666666668,600,30C627.7777777777778,29.583333333333332,638.8888888888889,-7.666666666666666,666.6666666666667,-6C694.4444444444446,-4.333333333333334,707.6388888888889,34.666666666666664,733.3333333333334,38C759.0277777777778,41.333333333333336,778.1944444444445,15.833333333333334,790,10" transform="matrix(1,0,0,1,0,105)"></path><path d="M10,10C21.805555555555557,14.791666666666668,40.97222222222223,40.708333333333336,66.66666666666667,33C92.36111111111111,25.291666666666664,105.55555555555557,-25.541666666666668,133.33333333333334,-27C161.11111111111111,-28.458333333333332,172.22222222222223,25.375,200,26C227.77777777777777,26.625,238.8888888888889,-24.416666666666668,266.6666666666667,-24C294.44444444444446,-23.583333333333332,305.5555555555556,25.083333333333332,333.33333333333337,28C361.11111111111114,30.916666666666668,372.22222222222223,-13.75,400,-10C427.77777777777777,-6.25,438.8888888888889,44.75,466.6666666666667,46C494.44444444444446,47.25,505.5555555555556,-0.666666666666667,533.3333333333334,-4C561.1111111111111,-7.333333333333333,572.2222222222222,30.416666666666668,600,30C627.7777777777778,29.583333333333332,638.8888888888889,-7.666666666666666,666.6666666666667,-6C694.4444444444446,-4.333333333333334,707.6388888888889,34.666666666666664,733.3333333333334,38C759.0277777777778,41.333333333333336,778.1944444444445,15.833333333333334,790,10" transform="matrix(1,0,0,1,0,70)"></path><path d="M10,10C21.805555555555557,14.791666666666668,40.97222222222223,40.708333333333336,66.66666666666667,33C92.36111111111111,25.291666666666664,105.55555555555557,-25.541666666666668,133.33333333333334,-27C161.11111111111111,-28.458333333333332,172.22222222222223,25.375,200,26C227.77777777777777,26.625,238.8888888888889,-24.416666666666668,266.6666666666667,-24C294.44444444444446,-23.583333333333332,305.5555555555556,25.083333333333332,333.33333333333337,28C361.11111111111114,30.916666666666668,372.22222222222223,-13.75,400,-10C427.77777777777777,-6.25,438.8888888888889,44.75,466.6666666666667,46C494.44444444444446,47.25,505.5555555555556,-0.666666666666667,533.3333333333334,-4C561.1111111111111,-7.333333333333333,572.2222222222222,30.416666666666668,600,30C627.7777777777778,29.583333333333332,638.8888888888889,-7.666666666666666,666.6666666666667,-6C694.4444444444446,-4.333333333333334,707.6388888888889,34.666666666666664,733.3333333333334,38C759.0277777777778,41.333333333333336,778.1944444444445,15.833333333333334,790,10" transform="matrix(1,0,0,1,0,35)"></path></g></svg>